<?xml version="1.0" encoding="utf-8"?><svg xmlns="http://www.w3.org/2000/svg" xmlns:xlink="http://www.w3.org/1999/xlink"><symbol viewBox="0 0 14 36" id="arrow-down" xmlns="http://www.w3.org/2000/svg"><path d="M14 29l-1.234-1.234-4.891 4.883V0h-1.75v32.649l-4.883-4.892L0 29l7 7 7-7z" fill-opacity=".09"/></symbol><symbol viewBox="0 0 20 70" id="arrow-down_big" xmlns="http://www.w3.org/2000/svg"><path d="M20 60l-1.762-1.763-6.988 6.976V0h-2.5v65.213l-6.975-6.988L0 60l10 10 10-10z" fill-opacity=".2"/></symbol><symbol viewBox="0 0 51 36" id="arrows" xmlns="http://www.w3.org/2000/svg"><path d="M17.617 22.66H0v4.947h17.617v7.42l10.027-9.893-10.027-9.893v7.42zm15.028-2.473v-7.42h17.617V7.822H32.645V.401l-10.027 9.894 10.027 9.893z" fill-opacity=".5"/></symbol><symbol viewBox="0 0 17 16" id="bag" xmlns="http://www.w3.org/2000/svg"><path d="M15.3 3.323h-3.4V1.662C11.9.739 11.143 0 10.2 0H6.8c-.944 0-1.7.74-1.7 1.662v1.661H1.7c-.944 0-1.692.74-1.692 1.662L0 14.125c0 .921.756 1.66 1.7 1.66h13.6c.944 0 1.7-.739 1.7-1.66v-9.14c0-.922-.756-1.662-1.7-1.662zm-5.1 0H6.8V1.662h3.4v1.661z"/></symbol><symbol viewBox="0 0 20 17" id="home" xmlns="http://www.w3.org/2000/svg"><path d="M8 16.667v-5.883h4v5.883h5V8.824h3L10 0 0 8.824h3v7.843h5z"/></symbol><symbol viewBox="0 0 169.063 169.063" id="inst" xmlns="http://www.w3.org/2000/svg"><path d="M122.406 0H46.654C20.929 0 0 20.93 0 46.655v75.752c0 25.726 20.929 46.655 46.654 46.655h75.752c25.727 0 46.656-20.93 46.656-46.655V46.655C169.063 20.93 148.133 0 122.406 0zm31.657 122.407c0 17.455-14.201 31.655-31.656 31.655H46.654C29.2 154.063 15 139.862 15 122.407V46.655C15 29.201 29.2 15 46.654 15h75.752c17.455 0 31.656 14.201 31.656 31.655v75.752z"/><path d="M84.531 40.97c-24.021 0-43.563 19.542-43.563 43.563 0 24.02 19.542 43.561 43.563 43.561s43.563-19.541 43.563-43.561c0-24.021-19.542-43.563-43.563-43.563zm0 72.123c-15.749 0-28.563-12.812-28.563-28.561 0-15.75 12.813-28.563 28.563-28.563s28.563 12.813 28.563 28.563c0 15.749-12.814 28.561-28.563 28.561zm45.39-84.842c-2.89 0-5.729 1.17-7.77 3.22a11.053 11.053 0 0 0-3.23 7.78c0 2.891 1.18 5.73 3.23 7.78 2.04 2.04 4.88 3.22 7.77 3.22 2.9 0 5.73-1.18 7.78-3.22 2.05-2.05 3.22-4.89 3.22-7.78 0-2.9-1.17-5.74-3.22-7.78-2.04-2.05-4.88-3.22-7.78-3.22z"/></symbol><symbol viewBox="0 0 17 13" id="letter" xmlns="http://www.w3.org/2000/svg"><path d="M15.3 0H1.7C.765 0 .008.731.008 1.625L0 11.375C0 12.269.765 13 1.7 13h13.6c.935 0 1.7-.731 1.7-1.625v-9.75C17 .731 16.235 0 15.3 0zm0 3.25L8.5 7.313 1.7 3.25V1.625l6.8 4.063 6.8-4.063V3.25z"/></symbol><symbol viewBox="0 0 50 28" id="list" xmlns="http://www.w3.org/2000/svg"><path d="M0 5.87h38.224V.51H0v5.36zm0 10.723h38.224v-5.361H0v5.361zm0 10.723h38.224v-5.362H0v5.362zm43.684 0h5.46v-5.362h-5.46v5.362zm0-26.807v5.362h5.46V.509h-5.46zm0 16.084h5.46v-5.361h-5.46v5.361z" fill-opacity=".5"/></symbol><symbol viewBox="0 0 76 68" id="message" xmlns="http://www.w3.org/2000/svg"><g filter="url(#ifilter0_d)"><path d="M49.696 14H14.411c-2.426 0-4.389 1.909-4.389 4.241L10 43.688c0 2.332 1.985 4.24 4.41 4.24h35.286c2.426 0 4.411-1.908 4.411-4.24V18.24c0-2.332-1.985-4.241-4.41-4.241zm0 8.482L32.054 33.085 14.41 22.482v-4.24l17.643 10.602L49.696 18.24v4.241z"/><circle cx="55.179" cy="11.214" r="10.179"/><path d="M56.602 17h-2.64V8.594l-2.594.758v-2l4.992-1.727h.242V17z"/></g><defs><filter id="ifilter0_d" x="0" y="1.036" width="75.357" height="66.893" filterUnits="userSpaceOnUse" color-interpolation-filters="sRGB"><feFlood flood-opacity="0" result="BackgroundImageFix"/><feColorMatrix in="SourceAlpha" values="0 0 0 0 0 0 0 0 0 0 0 0 0 0 0 0 0 0 127 0"/><feOffset dy="10"/><feGaussianBlur stdDeviation="5"/><feColorMatrix values="0 0 0 0 0 0 0 0 0 0 0 0 0 0 0 0 0 0 0.08 0"/><feBlend in2="BackgroundImageFix" result="effect1_dropShadow"/><feBlend in="SourceGraphic" in2="effect1_dropShadow" result="shape"/></filter></defs></symbol><symbol viewBox="0 0 17 16" id="phone" xmlns="http://www.w3.org/2000/svg"><path d="M3.77.058L2.67 0c-.348 0-.696.117-.928.35C1.221.818.352 1.694.12 2.862-.286 4.614.35 6.717 1.858 8.82s4.405 5.49 9.505 6.95c1.623.468 2.898.176 3.942-.467a3.447 3.447 0 0 0 1.506-2.22l.174-.817a.589.589 0 0 0-.29-.643l-3.65-1.693a.55.55 0 0 0-.696.175l-1.45 1.869a.449.449 0 0 1-.463.117c-.985-.35-4.289-1.752-6.086-5.257-.057-.175-.057-.35.058-.467L5.8 4.79c.116-.176.174-.41.116-.584L4.235.409a.506.506 0 0 0-.464-.35z"/></symbol><symbol viewBox="0 0 24 24" id="qr" xmlns="http://www.w3.org/2000/svg"><path d="M0 24h10.91V13.09H0V24zm2.182-8.727h6.545V21.8H2.182v-6.528z" fill-opacity=".15"/><path d="M6.545 17.454H4.364v2.182h2.181v-2.182zm13.091 4.364h-2.182V24h2.182v-2.182zm4.364 0h-2.182V24H24v-2.182z" fill-opacity=".15"/><path d="M21.818 15.273h-2.182V13.09h-6.545V24h2.182v-6.546h2.181v2.182H24v-6.545h-2.182v2.182zM0 10.91h10.91V0H0v10.91zm2.182-8.728h6.545v6.545H2.182V2.182z" fill-opacity=".15"/><path d="M6.545 4.364H4.364v2.182h2.181V4.364zM13.09 0v10.91H24V0H13.09zm8.728 8.727h-6.545V2.182h6.545v6.545z" fill-opacity=".15"/><path d="M19.636 4.364h-2.182v2.182h2.182V4.364z" fill-opacity=".15"/></symbol><symbol viewBox="0 0 32 32" id="qr-mob" xmlns="http://www.w3.org/2000/svg"><path d="M0 32h14.545V17.454H0V32zm2.909-11.636h8.727v8.704H2.91v-8.704z"/><path d="M8.727 23.273h-2.91v2.909h2.91v-2.91zm17.455 5.817h-2.91V32h2.91v-2.91zm5.818 0h-2.91V32H32v-2.91z"/><path d="M29.09 20.364h-2.908v-2.91h-8.728V32h2.91v-8.728h2.908v2.91H32v-8.728h-2.91v2.91zM0 14.546h14.545V0H0v14.546zM2.909 2.909h8.727v8.727H2.91V2.91z"/><path d="M8.727 5.818h-2.91v2.91h2.91v-2.91zM17.454 0v14.546H32V0H17.454zm11.637 11.636h-8.728V2.91h8.728v8.727z"/><path d="M26.182 5.818h-2.91v2.91h2.91v-2.91z"/></symbol><symbol viewBox="0 0 476.213 476.213" id="right-arrow" xmlns="http://www.w3.org/2000/svg"><path d="M345.606 107.5l-21.212 21.213 94.393 94.394H0v30h418.787L324.394 347.5l21.212 21.213 130.607-130.607z"/></symbol><symbol viewBox="0 0 24 23" id="star" xmlns="http://www.w3.org/2000/svg"><path d="M12 18.412l7.416 4.497-1.968-8.476L24 8.73l-8.628-.736L12 0 8.628 7.994 0 8.73l6.552 5.703-1.968 8.476L12 18.412z" fill-opacity=".15"/></symbol><symbol viewBox="0 0 34 32" id="star-mob" xmlns="http://www.w3.org/2000/svg"><path d="M16.516 25.718L26.723 32l-2.708-11.84 9.017-7.966-11.875-1.028L16.517 0l-4.642 11.166L0 12.194l9.018 7.966L6.309 32l10.207-6.282z"/></symbol><symbol viewBox="0 0 25 21" id="success" xmlns="http://www.w3.org/2000/svg"><path fill-opacity=".42" d="M0 5h16v16H0z"/><path d="M9.318 13.448L3.83 8.119 2 9.896 9.318 17 25 1.776 23.17 0 9.319 13.448z"/></symbol><symbol viewBox="0 0 20 20" id="town" xmlns="http://www.w3.org/2000/svg"><path d="M10 6.364A3.635 3.635 0 0 0 6.364 10 3.635 3.635 0 0 0 10 13.636 3.635 3.635 0 0 0 13.636 10 3.635 3.635 0 0 0 10 6.364zm8.127 2.727a8.177 8.177 0 0 0-7.218-7.218V0H9.091v1.873A8.177 8.177 0 0 0 1.873 9.09H0v1.818h1.873a8.177 8.177 0 0 0 7.218 7.218V20h1.818v-1.873a8.177 8.177 0 0 0 7.218-7.218H20V9.091h-1.873zM10 16.364A6.359 6.359 0 0 1 3.636 10 6.359 6.359 0 0 1 10 3.636 6.359 6.359 0 0 1 16.364 10 6.359 6.359 0 0 1 10 16.364z"/></symbol><symbol viewBox="0 0 43 41" id="user" xmlns="http://www.w3.org/2000/svg"><path d="M21.398 21.096A10.463 10.463 0 0 0 31.864 10.63 10.463 10.463 0 0 0 21.398.164 10.463 10.463 0 0 0 10.932 10.63a10.463 10.463 0 0 0 10.466 10.466zm0 5.233c-6.986 0-20.932 3.506-20.932 10.466v5.233H42.33v-5.233c0-6.96-13.946-10.466-20.932-10.466z"/></symbol><symbol viewBox="0 0 10 11" id="user-min" xmlns="http://www.w3.org/2000/svg"><path d="M5 5.035a2.498 2.498 0 0 0 2.492-2.518A2.498 2.498 0 0 0 5 0a2.505 2.505 0 0 0-2.5 2.517A2.505 2.505 0 0 0 5 5.035zm0 1.678c-1.667 0-5 .84-5 2.518v1.678h10V9.231c0-1.679-3.333-2.518-5-2.518z"/></symbol><symbol viewBox="0 0 49 43" id="user-success" xmlns="http://www.w3.org/2000/svg"><path fill-rule="evenodd" clip-rule="evenodd" d="M15.531 33.273l7.641-7.488c-.993-.102-1.732-.152-2.547-.152-6.8 0-20.375 3.412-20.375 10.187v5.094h22.922l-7.64-7.64zm5.094-12.734A10.185 10.185 0 0 0 30.813 10.35 10.185 10.185 0 0 0 20.625.163a10.185 10.185 0 0 0-10.188 10.188 10.185 10.185 0 0 0 10.188 10.188z" fill-opacity=".5"/><path fill-rule="evenodd" clip-rule="evenodd" d="M32.01 42.188l-8.838-8.915 3.566-3.59 5.272 5.297 13.066-13.168 3.565 3.591L32.01 42.188z" fill-opacity=".5"/></symbol><symbol viewBox="0 0 21 11" id="users-min" xmlns="http://www.w3.org/2000/svg"><path d="M7 4.23H4.375V1.693h-1.75v2.539H0v1.692h2.625v2.539h1.75v-2.54H7V4.231zm8.75.847c1.453 0 2.616-1.134 2.616-2.539C18.366 1.134 17.203 0 15.75 0c-.28 0-.551.042-.796.118.498.686.787 1.515.787 2.42 0 .906-.297 1.727-.787 2.42.245.077.516.119.796.119zm-4.375 0c1.453 0 2.616-1.134 2.616-2.539C13.991 1.134 12.828 0 11.375 0S8.75 1.134 8.75 2.538c0 1.405 1.172 2.539 2.625 2.539zm5.793 1.828c.726.617 1.207 1.404 1.207 2.403V11H21V9.308c0-1.303-2.074-2.107-3.832-2.403zm-5.793-.136c-1.75 0-5.25.846-5.25 2.539V11h10.5V9.308c0-1.693-3.5-2.539-5.25-2.539z"/></symbol></svg>