<svg xmlns="http://www.w3.org/2000/svg" xmlns:xlink="http://www.w3.org/1999/xlink" width="29" height="29"><defs><path id="a" d="M1106 1798.097v22.09c0 .49-.18.915-.538 1.275-.36.358-.784.538-1.275.538h-25.375c-.49 0-.916-.18-1.274-.538a1.742 1.742 0 0 1-.538-1.275v-22.09h.113c.264-.868.83-1.302 1.7-1.302h1.812v2.832c0 .756.264 1.397.793 1.925.528.53 1.17.793 1.926.793a2.62 2.62 0 0 0 1.926-.793c.528-.528.793-1.17.793-1.925v-2.832h10.875v2.832c0 .756.263 1.397.792 1.925.529.53 1.17.793 1.926.793a2.62 2.62 0 0 0 1.926-.793 2.62 2.62 0 0 0 .793-1.925v-2.832h1.812c.869 0 1.435.434 1.7 1.302zm-1.813 7.59h-25.375v14.5h25.375zm-21.75-11.78c0-.265.085-.482.255-.652a.846.846 0 0 1 .623-.255c.246 0 .462.085.652.255a.84.84 0 0 1 .283.651v5.72a.837.837 0 0 1-.283.652.947.947 0 0 1-.652.255.847.847 0 0 1-.623-.255.88.88 0 0 1-.255-.651zm16.313 0c0-.265.085-.482.255-.652a.881.881 0 0 1 .651-.255c.264 0 .482.085.652.255.17.17.255.387.255.651v5.72a.88.88 0 0 1-.255.652.883.883 0 0 1-.652.255.882.882 0 0 1-.651-.255.88.88 0 0 1-.255-.651z"/></defs><use fill="#fff" xlink:href="#a" transform="translate(-1077 -1793)"/></svg>