<svg width="226" height="209" viewBox="0 0 226 209" fill="none" xmlns="http://www.w3.org/2000/svg">
<path d="M223.788 173.045L164.291 207.411C161.626 208.939 157.607 209.147 155.307 207.785L24.8887 132.489C22.5884 131.161 22.8835 128.834 25.5398 127.28L85.0542 92.9051C87.7105 91.3686 91.7296 91.1689 94.03 92.5318L224.448 167.828C226.731 169.191 226.444 171.508 223.788 173.045Z" fill="#E0E0E0"/>
<path d="M49.5676 27.9738L3.39528 109.676C0.146584 115.433 -0.815029 122.203 0.701853 128.637C2.21873 135.071 6.10287 140.699 11.5811 144.399L82.3109 192.142C85.306 194.163 88.6855 195.546 92.2387 196.203C95.7918 196.86 99.4422 196.778 102.962 195.962L198.892 173.748C204.677 172.406 209.838 169.148 213.537 164.502C217.235 159.856 219.254 154.096 219.265 148.157L219.404 67.5315C219.416 61.5313 217.377 55.7072 213.624 51.0257C209.871 46.3441 204.63 43.0865 198.77 41.7934L78.1095 15.2307C72.6147 14.0244 66.878 14.611 61.7411 16.9045C56.6042 19.198 52.3377 23.0775 49.5676 27.9738Z" fill="url(#paint0_radial)"/>
<path d="M206.878 60.6218L124.985 107.905C124.142 108.376 123.2 108.642 122.235 108.682C121.27 108.723 120.309 108.537 119.429 108.14L69.2728 79.181C67.8491 78.365 68.0227 76.924 69.6721 75.9778L151.574 28.6684C152.418 28.1988 153.36 27.9337 154.325 27.8945C155.29 27.8553 156.25 28.0431 157.129 28.4427L207.277 57.41C208.701 58.2346 208.519 59.6669 206.878 60.6218Z" fill="#070554" fill-opacity="0.33"/>
<path d="M94.0126 92.5665C91.7123 91.2384 87.6932 91.4033 85.0369 92.9398L25.5398 127.298C22.8835 128.834 22.5884 131.161 24.8887 132.506L125.714 190.71L198.892 173.765C205.527 172.235 211.31 168.19 215.021 162.48L94.0126 92.5665Z" fill="#0E226C" fill-opacity="0.5"/>
<path d="M225.984 147.775L213.727 145.64L94.0123 76.5247C91.712 75.1966 87.6928 75.3615 85.0365 76.898L29.5846 108.93L23.3433 107.844V114.181C23.3722 114.663 23.5312 115.128 23.8032 115.527C24.0753 115.926 24.4503 116.244 24.8884 116.447L155.306 191.743C157.607 193.071 161.626 192.906 164.291 191.37L223.788 157.003C225.264 156.135 226.001 155.058 225.984 154.025V147.775Z" fill="url(#paint1_linear)"/>
<path d="M223.788 150.71L164.291 185.068C161.626 186.604 157.607 186.804 155.307 185.441L24.8887 110.145C22.5884 108.817 22.8835 106.499 25.5398 104.937L85.0542 70.596C87.7105 69.0682 91.7296 68.8599 94.03 70.2228L224.448 145.519C226.731 146.847 226.444 149.173 223.788 150.71Z" fill="url(#paint2_linear)"/>
<path d="M223.788 149.893L164.291 184.26C161.626 185.797 157.607 185.996 155.306 184.633L24.8884 109.337C24.5281 109.153 24.211 108.895 23.9581 108.579C23.7052 108.264 23.5223 107.898 23.4214 107.506C23.3569 108.044 23.4683 108.588 23.739 109.058C24.0097 109.527 24.4252 109.896 24.9232 110.11L155.306 185.441C157.607 186.769 161.626 186.604 164.291 185.067L223.788 150.709C225.437 149.755 226.175 148.496 225.941 147.359C225.784 147.911 225.511 148.422 225.139 148.86C224.768 149.297 224.307 149.649 223.788 149.893Z" fill="white"/>
<path d="M64.2204 86.1776L55.0363 91.4727C54.8327 91.5882 54.6047 91.654 54.3709 91.6645C54.137 91.6751 53.904 91.6302 53.6908 91.5335L53.604 91.4814C53.2568 91.2818 53.3002 90.9345 53.6995 90.7002L62.8749 85.3963C63.0803 85.2854 63.3084 85.2231 63.5416 85.214C63.7749 85.205 64.0071 85.2495 64.2204 85.3442L64.3072 85.3963C64.6458 85.596 64.6024 85.9605 64.2204 86.1776Z" fill="#0063AD"/>
<g style="mix-blend-mode:multiply" opacity="0.5">
<g style="mix-blend-mode:multiply" opacity="0.5">
<g style="mix-blend-mode:multiply" opacity="0.5">
<path d="M186.061 97.4885H58.8726V165.718H186.061V97.4885Z" fill="white"/>
</g>
<g style="mix-blend-mode:multiply" opacity="0.5">
<path d="M168.618 153.257C172.196 145.722 154.428 129.799 128.933 117.693C103.438 105.587 79.8696 101.882 76.2915 109.418C72.7134 116.953 90.4806 132.876 115.976 144.982C141.471 157.088 165.039 160.793 168.618 153.257Z" fill="white"/>
</g>
<g style="mix-blend-mode:multiply" opacity="0.5">
<path d="M168.437 153.172C172.003 145.662 154.306 129.799 128.911 117.74C103.515 105.681 80.0376 101.994 76.4718 109.503C72.906 117.013 90.6025 132.876 115.998 144.935C141.394 156.993 164.871 160.681 168.437 153.172Z" fill="white"/>
</g>
<g style="mix-blend-mode:multiply" opacity="0.5">
<path d="M168.257 153.086C171.809 145.607 154.181 129.806 128.885 117.795C103.589 105.784 80.2039 102.11 76.6525 109.589C73.1011 117.068 90.7286 132.868 116.025 144.88C141.32 156.891 164.706 160.565 168.257 153.086Z" fill="white"/>
</g>
<g style="mix-blend-mode:multiply" opacity="0.5">
<path d="M168.077 153C171.614 145.551 154.056 129.814 128.86 117.85C103.663 105.886 80.3702 102.226 76.8333 109.674C73.2963 117.123 90.8546 132.861 116.051 144.825C141.247 156.789 164.54 160.449 168.077 153Z" fill="white"/>
</g>
<g style="mix-blend-mode:multiply" opacity="0.5">
<path d="M167.896 152.915C171.419 145.496 153.93 129.822 128.833 117.905C103.736 105.988 80.5356 102.342 77.013 109.76C73.4904 117.179 90.9797 132.853 116.076 144.77C141.173 156.687 164.374 160.333 167.896 152.915Z" fill="#FEFFFF"/>
</g>
<g style="mix-blend-mode:multiply" opacity="0.5">
<path d="M167.716 152.829C171.224 145.441 153.804 129.829 128.807 117.96C103.81 106.09 80.7017 102.457 77.1935 109.846C73.6853 117.234 91.1055 132.846 116.103 144.715C141.1 156.585 164.208 160.217 167.716 152.829Z" fill="#FEFEFF"/>
</g>
<g style="mix-blend-mode:multiply" opacity="0.5">
<path d="M167.536 152.743C171.029 145.385 153.678 129.837 128.781 118.014C103.883 106.192 80.8675 102.573 77.3737 109.931C73.8799 117.289 91.231 132.838 116.129 144.66C141.026 156.482 164.042 160.101 167.536 152.743Z" fill="#FEFEFF"/>
</g>
<g style="mix-blend-mode:multiply" opacity="0.5">
<path d="M167.347 152.654C170.829 145.322 153.552 129.834 128.758 118.062C103.965 106.289 81.0433 102.689 77.5618 110.021C74.0803 117.353 91.3572 132.84 116.151 144.613C140.944 156.386 163.866 159.986 167.347 152.654Z" fill="#FEFEFE"/>
</g>
<g style="mix-blend-mode:multiply" opacity="0.5">
<path d="M167.167 152.568C170.634 145.267 153.427 129.842 128.733 118.117C104.039 106.391 81.2096 102.805 77.7425 110.106C74.2755 117.408 91.4833 132.833 116.177 144.558C140.871 156.284 163.7 159.87 167.167 152.568Z" fill="#FDFEFE"/>
</g>
<g style="mix-blend-mode:multiply" opacity="0.5">
<path d="M166.986 152.483C170.439 145.211 153.3 129.85 128.706 118.171C104.112 106.493 81.375 102.921 77.9223 110.192C74.4696 117.463 91.6083 132.825 116.203 144.503C140.797 156.182 163.534 159.754 166.986 152.483Z" fill="#FDFDFE"/>
</g>
<g style="mix-blend-mode:multiply" opacity="0.5">
<path d="M166.806 152.397C170.245 145.156 153.175 129.857 128.68 118.226C104.186 106.595 81.5413 103.037 78.103 110.278C74.6647 117.519 91.7344 132.817 116.229 144.448C140.724 156.079 163.368 159.638 166.806 152.397Z" fill="#FDFDFE"/>
</g>
<g style="mix-blend-mode:multiply" opacity="0.5">
<path d="M166.626 152.311C170.05 145.101 153.049 129.865 128.654 118.281C104.259 106.698 81.7074 103.153 78.2835 110.363C74.8596 117.574 91.8602 132.81 116.255 144.394C140.65 155.977 163.202 159.522 166.626 152.311Z" fill="#FCFDFE"/>
</g>
<g style="mix-blend-mode:multiply" opacity="0.5">
<path d="M166.446 152.226C169.855 145.045 152.924 129.872 128.628 118.336C104.333 106.8 81.8732 103.268 78.4637 110.449C75.0542 117.629 91.9857 132.802 116.281 144.338C140.577 155.875 163.036 159.406 166.446 152.226Z" fill="#FCFDFE"/>
</g>
<g style="mix-blend-mode:multiply" opacity="0.5">
<path d="M166.265 152.14C169.662 144.986 152.802 129.872 128.606 118.383C104.41 106.894 82.0412 103.38 78.644 110.535C75.2469 117.689 92.1076 132.803 116.304 144.292C140.499 155.781 162.868 159.295 166.265 152.14Z" fill="#FBFCFE"/>
</g>
<g style="mix-blend-mode:multiply" opacity="0.5">
<path d="M166.085 152.055C169.468 144.93 152.676 129.88 128.58 118.438C104.483 106.996 82.207 103.496 78.8243 110.62C75.4415 117.744 92.2331 132.795 116.329 144.237C140.426 155.678 162.702 159.179 166.085 152.055Z" fill="#FBFCFD"/>
</g>
<g style="mix-blend-mode:multiply" opacity="0.5">
<path d="M165.904 151.969C169.273 144.875 152.55 129.887 128.553 118.493C104.557 107.098 82.3729 103.612 79.0045 110.706C75.6361 117.799 92.3587 132.787 116.355 144.182C140.352 155.576 162.536 159.062 165.904 151.969Z" fill="#FBFCFD"/>
</g>
<g style="mix-blend-mode:multiply" opacity="0.5">
<path d="M165.724 151.883C169.078 144.82 152.424 129.895 128.527 118.548C104.63 107.2 82.5387 103.728 79.1847 110.791C75.8308 117.855 92.4842 132.78 116.381 144.127C140.278 155.474 162.37 158.947 165.724 151.883Z" fill="#FAFBFD"/>
</g>
<g style="mix-blend-mode:multiply" opacity="0.5">
<path d="M165.544 151.797C168.883 144.764 152.299 129.902 128.501 118.603C104.704 107.303 82.705 103.844 79.3655 110.877C76.0259 117.91 92.6103 132.772 116.408 144.072C140.205 155.372 162.204 158.831 165.544 151.797Z" fill="#FAFBFD"/>
</g>
<g style="mix-blend-mode:multiply" opacity="0.5">
<path d="M165.364 151.712C168.691 144.705 152.177 129.902 128.48 118.65C104.782 107.397 82.8735 103.955 79.5462 110.963C76.219 117.97 92.7327 132.772 116.431 144.025C140.128 155.277 162.037 158.719 165.364 151.712Z" fill="#F9FBFD"/>
</g>
<g style="mix-blend-mode:multiply" opacity="0.5">
<path d="M165.175 151.623C168.488 144.646 152.047 129.908 128.453 118.705C104.859 107.501 83.0469 104.075 79.734 111.052C76.4212 118.029 92.8623 132.767 116.456 143.97C140.05 155.173 161.862 158.599 165.175 151.623Z" fill="#F9FAFC"/>
</g>
<g style="mix-blend-mode:multiply" opacity="0.5">
<path d="M164.995 151.537C168.293 144.59 151.921 129.916 128.427 118.76C104.933 107.604 83.2127 104.191 79.9143 111.138C76.6158 118.084 92.9878 132.759 116.482 143.915C139.977 155.071 161.696 158.484 164.995 151.537Z" fill="#F8FAFC"/>
</g>
<g style="mix-blend-mode:multiply" opacity="0.5">
<path d="M164.815 151.451C168.099 144.535 151.796 129.923 128.401 118.814C105.006 107.706 83.3791 104.307 80.095 111.223C76.8109 118.139 93.1139 132.751 116.509 143.86C139.903 154.969 161.531 158.367 164.815 151.451Z" fill="#F8FAFC"/>
</g>
<g style="mix-blend-mode:multiply" opacity="0.5">
<path d="M164.634 151.365C167.904 144.48 151.67 129.93 128.375 118.869C105.079 107.808 83.5444 104.423 80.2747 111.309C77.0051 118.195 93.2389 132.744 116.534 143.805C139.829 154.867 161.364 158.251 164.634 151.365Z" fill="#F7F9FC"/>
</g>
<g style="mix-blend-mode:multiply" opacity="0.5">
<path d="M164.454 151.28C167.709 144.424 151.544 129.938 128.349 118.924C105.153 107.91 83.7107 104.539 80.4555 111.394C77.2002 118.25 93.365 132.736 116.56 143.75C139.756 154.764 161.199 158.135 164.454 151.28Z" fill="#F7F9FC"/>
</g>
<g style="mix-blend-mode:multiply" opacity="0.5">
<path d="M164.273 151.194C167.516 144.365 151.422 129.938 128.326 118.971C105.231 108.004 83.8787 104.651 80.6358 111.48C77.3928 118.31 93.4869 132.736 116.583 143.703C139.679 154.67 161.031 158.024 164.273 151.194Z" fill="#F6F9FB"/>
</g>
<g style="mix-blend-mode:multiply" opacity="0.5">
<path d="M164.093 151.109C167.321 144.309 151.296 129.945 128.3 119.026C105.304 108.107 84.0443 104.766 80.8158 111.566C77.5872 118.365 93.6122 132.729 116.608 143.648C139.605 154.568 160.864 157.908 164.093 151.109Z" fill="#F6F8FB"/>
</g>
<g style="mix-blend-mode:multiply" opacity="0.5">
<path d="M163.913 151.023C167.127 144.254 151.171 129.953 128.274 119.081C105.378 108.209 84.2106 104.882 80.9965 111.651C77.7823 118.42 93.7382 132.721 116.635 143.593C139.532 154.466 160.699 157.792 163.913 151.023Z" fill="#F5F8FB"/>
</g>
<g style="mix-blend-mode:multiply" opacity="0.5">
<path d="M163.732 150.937C166.932 144.199 151.045 129.961 128.248 119.136C105.451 108.311 84.3765 104.998 81.1767 111.737C77.977 118.476 93.8638 132.714 116.661 143.539C139.458 154.363 160.533 157.676 163.732 150.937Z" fill="#F5F7FB"/>
</g>
<g style="mix-blend-mode:multiply" opacity="0.5">
<path d="M163.552 150.852C166.737 144.143 150.919 129.968 128.222 119.191C105.524 108.413 84.5423 105.114 81.3569 111.823C78.1716 118.531 93.9893 132.706 116.687 143.484C139.384 154.261 160.366 157.56 163.552 150.852Z" fill="#F4F7FB"/>
</g>
<g style="mix-blend-mode:multiply" opacity="0.5">
<path d="M163.372 150.766C166.543 144.088 150.794 129.976 128.196 119.246C105.598 108.515 84.7086 105.23 81.5377 111.908C78.3667 118.586 94.1153 132.699 116.713 143.429C139.311 154.159 160.201 157.444 163.372 150.766Z" fill="#F4F7FA"/>
</g>
<g style="mix-blend-mode:multiply" opacity="0.5">
<path d="M163.184 150.677C166.342 144.025 150.668 129.973 128.174 119.293C105.68 108.612 84.8844 105.346 81.7258 111.998C78.5672 118.65 94.2415 132.701 116.735 143.382C139.229 154.063 160.025 157.329 163.184 150.677Z" fill="#F3F6FA"/>
</g>
<g style="mix-blend-mode:multiply" opacity="0.5">
<path d="M163.004 150.591C166.148 143.969 150.542 129.981 128.148 119.347C105.754 108.714 85.0507 105.462 81.9065 112.083C78.7623 118.705 94.3676 132.693 116.762 143.327C139.156 153.96 159.859 157.213 163.004 150.591Z" fill="#F2F6FA"/>
</g>
<g style="mix-blend-mode:multiply" opacity="0.5">
<path d="M162.822 150.505C165.952 143.914 150.416 129.989 128.121 119.402C105.827 108.816 85.2158 105.578 82.086 112.169C78.9562 118.76 94.4924 132.686 116.787 143.272C139.082 153.858 159.692 157.097 162.822 150.505Z" fill="#F2F5FA"/>
</g>
<g style="mix-blend-mode:multiply" opacity="0.5">
<path d="M162.642 150.42C165.758 143.859 150.291 129.996 128.096 119.457C105.9 108.918 85.3822 105.694 82.2667 112.255C79.1513 118.816 94.6184 132.678 116.814 143.217C139.009 153.756 159.527 156.981 162.642 150.42Z" fill="#F1F5F9"/>
</g>
<g style="mix-blend-mode:multiply" opacity="0.5">
<path d="M162.462 150.334C165.563 143.803 150.165 130.004 128.07 119.512C105.974 109.02 85.5485 105.809 82.4474 112.34C79.3464 118.871 94.7445 132.671 116.84 143.162C138.935 153.654 159.361 156.865 162.462 150.334Z" fill="#F1F4F9"/>
</g>
<g style="mix-blend-mode:multiply" opacity="0.5">
<path d="M162.311 150.249C159.221 156.751 138.873 153.557 116.885 143.114C94.8971 132.671 79.5411 118.947 82.6227 112.428C85.7043 105.909 106.06 109.121 128.048 119.563C150.037 130.006 165.367 143.748 162.311 150.249Z" fill="#F0F4F9"/>
</g>
<g style="mix-blend-mode:multiply" opacity="0.5">
<path d="M162.101 150.163C165.176 143.688 149.918 130.011 128.021 119.614C106.125 109.217 85.8823 106.037 82.808 112.512C79.7337 118.986 94.9919 132.663 116.888 143.06C138.784 153.457 159.027 156.637 162.101 150.163Z" fill="#EFF4F9"/>
</g>
<g style="mix-blend-mode:multiply" opacity="0.5">
<path d="M161.921 150.077C164.981 143.633 149.792 130.019 127.995 119.669C106.198 109.319 86.0481 106.153 82.9882 112.597C79.9283 119.041 95.1175 132.656 116.914 143.005C138.711 153.355 158.861 156.521 161.921 150.077Z" fill="#EFF3F8"/>
</g>
<g style="mix-blend-mode:multiply" opacity="0.5">
<path d="M161.741 149.992C164.786 143.578 149.666 130.026 127.969 119.724C106.272 109.421 86.214 106.269 83.1685 112.683C80.1229 119.097 95.243 132.648 116.94 142.951C138.637 153.253 158.695 156.405 161.741 149.992Z" fill="#EEF3F8"/>
</g>
<g style="mix-blend-mode:multiply" opacity="0.5">
<path d="M161.56 149.906C164.591 143.522 149.54 130.034 127.942 119.779C106.345 109.524 86.3796 106.385 83.3484 112.768C80.3173 119.152 95.3683 132.64 116.966 142.896C138.563 153.151 158.529 156.29 161.56 149.906Z" fill="#EEF2F8"/>
</g>
<g style="mix-blend-mode:multiply" opacity="0.5">
<path d="M161.38 149.82C164.397 143.467 149.415 130.042 127.917 119.834C106.419 109.626 86.5459 106.501 83.5292 112.854C80.5124 119.207 95.4944 132.633 116.992 142.841C138.49 153.049 158.363 156.174 161.38 149.82Z" fill="#EDF2F8"/>
</g>
<g style="mix-blend-mode:multiply" opacity="0.5">
<path d="M161.199 149.735C164.204 143.407 149.293 130.041 127.894 119.881C106.496 109.72 86.7138 106.613 83.7095 112.94C80.7051 119.267 95.6162 132.633 117.015 142.794C138.413 152.954 158.195 156.062 161.199 149.735Z" fill="#ECF1F7"/>
</g>
<g style="mix-blend-mode:multiply" opacity="0.5">
<path d="M161.012 149.645C164.002 143.348 149.163 130.047 127.869 119.936C106.574 109.824 86.888 106.732 83.898 113.029C80.908 119.326 95.7466 132.627 117.041 142.739C138.335 152.85 158.022 155.942 161.012 149.645Z" fill="#ECF1F7"/>
</g>
<g style="mix-blend-mode:multiply" opacity="0.5">
<path d="M160.831 149.56C163.807 143.293 149.037 130.055 127.842 119.991C106.648 109.927 87.0538 106.848 84.0782 113.115C81.1026 119.381 95.8721 132.62 117.067 142.684C138.262 152.748 157.855 155.826 160.831 149.56Z" fill="#EBF0F7"/>
</g>
<g style="mix-blend-mode:multiply" opacity="0.5">
<path d="M160.653 149.477C157.693 155.71 138.188 152.645 117.094 142.628C95.9998 132.61 81.2948 119.433 84.2549 113.201C87.215 106.968 106.72 110.032 127.814 120.041C148.908 130.05 163.613 143.253 160.653 149.477Z" fill="#EAF0F6"/>
</g>
<g style="mix-blend-mode:multiply" opacity="0.5">
<path d="M160.471 149.388C163.417 143.182 148.786 130.07 127.791 120.1C106.795 110.131 87.386 107.08 84.4392 113.286C81.4924 119.492 96.1237 132.605 117.119 142.574C138.115 152.544 157.524 155.594 160.471 149.388Z" fill="#EAEFF6"/>
</g>
<g style="mix-blend-mode:multiply" opacity="0.5">
<path d="M160.29 149.303C163.222 143.127 148.66 130.077 127.764 120.155C106.868 110.233 87.5516 107.196 84.6192 113.372C81.6868 119.547 96.249 132.597 117.145 142.519C138.041 152.441 157.357 155.478 160.29 149.303Z" fill="#E9EFF6"/>
</g>
<g style="mix-blend-mode:multiply" opacity="0.5">
<path d="M160.106 149.216C157.19 155.406 138.005 152.341 117.172 142.471C96.3383 132.602 81.8764 119.607 84.8018 113.461C87.7271 107.315 106.946 110.327 127.736 120.206C148.526 130.084 163.032 143.07 160.106 149.216Z" fill="#E8EEF6"/>
</g>
<g style="mix-blend-mode:multiply" opacity="0.5">
<path d="M159.929 149.132C162.835 143.012 148.412 130.085 127.716 120.257C107.019 110.43 87.8854 107.424 84.9797 113.543C82.074 119.662 96.4965 132.59 117.193 142.417C137.89 152.245 157.023 155.251 159.929 149.132Z" fill="#E7EEF5"/>
</g>
<g style="mix-blend-mode:multiply" opacity="0.5">
<path d="M159.749 149.046C162.64 142.957 148.287 130.092 127.69 120.312C107.093 110.532 88.0517 107.54 85.1604 113.629C82.2691 119.718 96.6225 132.582 117.22 142.362C137.817 152.143 156.858 155.135 159.749 149.046Z" fill="#E7EDF5"/>
</g>
<g style="mix-blend-mode:multiply" opacity="0.5">
<path d="M159.569 148.96C162.446 142.902 148.162 130.1 127.664 120.367C107.167 110.634 88.2181 107.656 85.3412 113.714C82.4643 119.773 96.7486 132.575 117.246 142.308C137.743 152.04 156.692 155.019 159.569 148.96Z" fill="#E6EDF5"/>
</g>
<g style="mix-blend-mode:multiply" opacity="0.5">
<path d="M159.388 148.875C162.251 142.846 148.035 130.107 127.637 120.422C107.24 110.736 88.3834 107.772 85.5209 113.8C82.6584 119.828 96.8736 132.567 117.271 142.253C137.669 151.938 156.526 154.903 159.388 148.875Z" fill="#E5ECF4"/>
</g>
<g style="mix-blend-mode:multiply" opacity="0.5">
<path d="M159.208 148.789C162.056 142.791 147.91 130.115 127.612 120.477C107.314 110.838 88.5497 107.887 85.7016 113.886C82.8535 119.884 96.9997 132.559 117.298 142.198C137.596 151.836 156.36 154.787 159.208 148.789Z" fill="#E5ECF4"/>
</g>
<g style="mix-blend-mode:multiply" opacity="0.5">
<path d="M159.028 148.703C161.863 142.731 147.788 130.115 127.589 120.524C107.391 110.933 88.7177 107.999 85.8819 113.971C83.0462 119.943 97.1216 132.56 117.32 142.151C137.519 151.742 156.192 154.675 159.028 148.703Z" fill="#E4EBF4"/>
</g>
<g style="mix-blend-mode:multiply" opacity="0.5">
<path d="M158.84 148.614C161.661 142.672 147.658 130.12 127.563 120.579C107.469 111.037 88.8916 108.119 86.0702 114.061C83.2488 120.002 97.2516 132.554 117.346 142.096C137.441 151.637 156.018 154.556 158.84 148.614Z" fill="#E3EBF4"/>
</g>
<g style="mix-blend-mode:multiply" opacity="0.5">
<path d="M158.659 148.528C161.466 142.617 147.532 130.128 127.537 120.634C107.542 111.139 89.0569 108.235 86.25 114.146C83.443 120.058 97.3767 132.547 117.372 142.041C137.367 151.535 155.852 154.44 158.659 148.528Z" fill="#E2EAF3"/>
</g>
<g style="mix-blend-mode:multiply" opacity="0.5">
<path d="M158.038 149.034C160.838 143.174 147.038 130.747 127.216 121.276C107.394 111.806 89.056 108.878 86.2565 114.738C83.457 120.597 97.2564 133.025 117.078 142.495C136.9 151.966 155.239 154.893 158.038 149.034Z" fill="#E2EAF3"/>
</g>
<g style="mix-blend-mode:multiply" opacity="0.5">
<path d="M158.298 148.357C161.076 142.506 147.281 130.143 127.485 120.743C107.689 111.344 89.3891 108.467 86.6109 114.317C83.8327 120.168 97.6283 132.531 117.424 141.931C137.22 151.331 155.52 154.208 158.298 148.357Z" fill="#E1E9F3"/>
</g>
<g style="mix-blend-mode:multiply" opacity="0.5">
<path d="M158.118 148.271C160.884 142.447 147.159 130.143 127.462 120.79C107.766 111.438 89.5571 108.578 86.7912 114.403C84.0254 120.228 97.7502 132.532 117.446 141.884C137.143 151.237 155.352 154.096 158.118 148.271Z" fill="#E0E8F2"/>
</g>
<g style="mix-blend-mode:multiply" opacity="0.5">
<path d="M157.938 148.186C160.689 142.391 147.033 130.15 127.437 120.845C107.84 111.54 89.7234 108.694 86.9719 114.489C84.2205 120.283 97.8762 132.524 117.473 141.829C137.07 151.134 155.186 153.98 157.938 148.186Z" fill="#DFE8F2"/>
</g>
<g style="mix-blend-mode:multiply" opacity="0.5">
<path d="M157.757 148.1C160.494 142.336 146.907 130.158 127.41 120.9C107.913 111.642 89.889 108.81 87.1519 114.574C84.4149 120.339 98.0015 132.516 117.499 141.774C136.996 151.032 155.02 153.864 157.757 148.1Z" fill="#DFE7F2"/>
</g>
<g style="mix-blend-mode:multiply" opacity="0.5">
<path d="M157.577 148.015C160.299 142.281 146.782 130.166 127.384 120.955C107.987 111.745 90.0548 108.926 87.3322 114.66C84.6095 120.394 98.1271 132.509 117.525 141.719C136.922 150.93 154.854 153.748 157.577 148.015Z" fill="#DEE7F1"/>
</g>
<g style="mix-blend-mode:multiply" opacity="0.5">
<path d="M157.397 147.929C160.105 142.225 146.656 130.173 127.358 121.01C108.061 111.847 90.2212 109.042 87.5129 114.746C84.8046 120.449 98.2531 132.501 117.551 141.665C136.849 150.828 154.688 153.633 157.397 147.929Z" fill="#DDE6F1"/>
</g>
<g style="mix-blend-mode:multiply" opacity="0.5">
<path d="M157.216 147.843C159.91 142.17 146.531 130.181 127.332 121.065C108.134 111.949 90.387 109.158 87.6931 114.831C84.9992 120.505 98.3787 132.494 117.577 141.61C136.775 150.726 154.522 153.517 157.216 147.843Z" fill="#DCE6F1"/>
</g>
<g style="mix-blend-mode:multiply" opacity="0.5">
<path d="M157.036 147.758C159.717 142.11 146.409 130.181 127.31 121.112C108.211 112.043 90.555 109.27 87.8734 114.917C85.1919 120.564 98.5006 132.494 117.599 141.563C136.698 150.631 154.354 153.405 157.036 147.758Z" fill="#DCE5F0"/>
</g>
<g style="mix-blend-mode:multiply" opacity="0.5">
<path d="M156.848 147.668C159.515 142.051 146.279 130.186 127.284 121.167C108.289 112.147 90.7291 109.389 88.062 115.006C85.3948 120.623 98.6309 132.488 117.626 141.508C136.62 150.527 154.181 153.285 156.848 147.668Z" fill="#DBE4F0"/>
</g>
<g style="mix-blend-mode:multiply" opacity="0.5">
<path d="M156.668 147.583C159.321 141.996 146.154 130.194 127.258 121.222C108.363 112.25 90.8954 109.505 88.2427 115.092C85.5899 120.679 98.7569 132.481 117.652 141.453C136.547 150.425 154.015 153.169 156.668 147.583Z" fill="#DAE4F0"/>
</g>
<g style="mix-blend-mode:multiply" opacity="0.5">
<path d="M156.487 147.497C159.125 141.941 146.028 130.201 127.232 121.277C108.437 112.352 91.061 109.621 88.4227 115.178C85.7843 120.734 98.8823 132.473 117.678 141.398C136.473 150.323 153.849 153.053 156.487 147.497Z" fill="#D9E3EF"/>
</g>
<g style="mix-blend-mode:multiply" opacity="0.5">
<path d="M156.307 147.411C158.931 141.885 145.902 130.209 127.206 121.332C108.51 112.454 91.2269 109.737 88.6029 115.263C85.9789 120.789 99.0078 132.466 117.704 141.343C136.4 150.221 153.683 152.937 156.307 147.411Z" fill="#D8E3EF"/>
</g>
<g style="mix-blend-mode:multiply" opacity="0.5">
<path d="M156.126 147.326C158.736 141.83 145.776 130.217 127.18 121.386C108.583 112.556 91.3927 109.853 88.7831 115.349C86.1736 120.845 99.1334 132.458 117.73 141.288C136.326 150.118 153.517 152.821 156.126 147.326Z" fill="#D7E2EF"/>
</g>
<g style="mix-blend-mode:multiply" opacity="0.5">
<path d="M155.948 147.237C153.344 152.706 136.252 150.024 117.753 141.239C99.2547 132.454 86.364 120.9 88.9595 115.475C91.555 110.049 108.656 112.697 127.154 121.482C145.653 130.267 158.543 141.768 155.948 147.237Z" fill="#D7E1EE"/>
</g>
<g style="mix-blend-mode:multiply" opacity="0.5">
<path d="M155.765 147.154C158.348 141.715 145.528 130.224 127.131 121.488C108.734 112.753 91.7265 110.081 89.1437 115.52C86.5608 120.96 99.3808 132.451 117.778 141.186C136.175 149.922 153.182 152.594 155.765 147.154Z" fill="#D6E1EE"/>
</g>
<g style="mix-blend-mode:multiply" opacity="0.5">
<path d="M155.585 147.069C158.154 141.66 145.403 130.232 127.105 121.543C108.808 112.855 91.8928 110.197 89.3244 115.606C86.756 121.015 99.5068 132.443 117.804 141.131C136.102 149.82 153.017 152.478 155.585 147.069Z" fill="#D5E0EE"/>
</g>
<g style="mix-blend-mode:multiply" opacity="0.5">
<path d="M155.366 146.985C152.814 152.359 135.991 149.72 117.796 141.074C99.6017 132.428 86.9193 121.108 89.4714 115.692C92.0235 110.275 108.847 112.957 127.041 121.595C145.236 130.232 157.97 141.603 155.366 146.985Z" fill="#D4E0ED"/>
</g>
<g style="mix-blend-mode:multiply" opacity="0.5">
<path d="M155.224 146.898C157.764 141.549 145.151 130.247 127.053 121.653C108.955 113.059 92.2243 110.429 89.6846 115.777C87.145 121.126 99.7577 132.428 117.856 141.022C135.954 149.615 152.684 152.246 155.224 146.898Z" fill="#D3DFED"/>
</g>
<g style="mix-blend-mode:multiply" opacity="0.5">
<path d="M155.044 146.812C157.571 141.489 145.029 130.246 127.03 121.7C109.032 113.154 92.3922 110.54 89.8649 115.863C87.3376 121.185 99.8796 132.428 117.878 140.975C135.877 149.521 152.516 152.134 155.044 146.812Z" fill="#D2DEED"/>
</g>
<g style="mix-blend-mode:multiply" opacity="0.5">
<path d="M154.864 146.726C157.377 141.434 144.904 130.254 127.005 121.755C109.106 113.256 92.5585 110.656 90.0456 115.948C87.5327 121.241 100.006 132.421 117.905 140.92C135.804 149.419 152.351 152.018 154.864 146.726Z" fill="#D2DEEC"/>
</g>
<g style="mix-blend-mode:multiply" opacity="0.5">
<path d="M154.676 146.637C157.174 141.375 144.774 130.26 126.979 121.81C109.184 113.36 92.7327 110.776 90.2342 116.038C87.7357 121.3 100.136 132.415 117.931 140.865C135.726 149.314 152.177 151.899 154.676 146.637Z" fill="#D1DDEC"/>
</g>
<g style="mix-blend-mode:multiply" opacity="0.5">
<path d="M154.495 146.551C156.979 141.32 144.648 130.267 126.952 121.865C109.257 113.462 92.898 110.892 90.4139 116.123C87.9298 121.355 100.261 132.407 117.956 140.81C135.652 149.212 152.011 151.783 154.495 146.551Z" fill="#D0DCEC"/>
</g>
<g style="mix-blend-mode:multiply" opacity="0.5">
<path d="M154.316 146.465C151.842 151.673 135.574 149.112 117.979 140.753C100.383 132.393 88.1174 121.412 90.5914 116.213C93.0654 111.013 109.333 113.608 126.929 121.916C144.524 130.223 156.79 141.265 154.316 146.465Z" fill="#CFDCEB"/>
</g>
<g style="mix-blend-mode:multiply" opacity="0.5">
<path d="M154.135 146.38C156.59 141.209 144.397 130.282 126.901 121.975C109.405 113.667 93.2307 111.124 90.7754 116.295C88.32 121.466 100.513 132.392 118.009 140.7C135.506 149.008 151.68 151.551 154.135 146.38Z" fill="#CEDBEB"/>
</g>
<g style="mix-blend-mode:multiply" opacity="0.5">
<path d="M153.954 146.294C156.397 141.149 144.275 130.282 126.878 122.022C109.482 113.761 93.3987 111.235 90.9557 116.38C88.5127 121.525 100.635 132.393 118.032 140.653C135.428 148.914 151.511 151.439 153.954 146.294Z" fill="#CDDBEB"/>
</g>
<g style="mix-blend-mode:multiply" opacity="0.5">
<path d="M153.774 146.209C156.202 141.094 144.149 130.29 126.852 122.077C109.555 113.863 93.5643 111.351 91.1357 116.466C88.7071 121.581 100.76 132.385 118.057 140.598C135.354 148.811 151.345 151.323 153.774 146.209Z" fill="#CCDAEA"/>
</g>
<g style="mix-blend-mode:multiply" opacity="0.5">
<path d="M153.63 146.126C151.217 151.204 135.314 148.73 118.118 140.544C100.921 132.359 88.9333 121.638 91.3465 116.551C93.7597 111.464 109.663 113.947 126.859 122.133C144.055 130.319 156.009 141.039 153.63 146.126Z" fill="#CCD9EA"/>
</g>
<g style="mix-blend-mode:multiply" opacity="0.5">
<path d="M153.413 146.039C151.009 151.091 135.184 148.644 118.109 140.492C101.034 132.341 89.0984 121.69 91.4942 116.638C93.8901 111.586 109.724 114.034 126.798 122.185C143.873 130.336 155.809 140.979 153.413 146.039Z" fill="#CBD9E9"/>
</g>
<g style="mix-blend-mode:multiply" opacity="0.5">
<path d="M153.231 145.953C150.843 150.979 135.131 148.505 118.135 140.44C101.138 132.376 89.289 121.751 91.6762 116.725C94.0633 111.699 109.775 114.173 126.772 122.237C143.769 130.301 155.618 140.926 153.231 145.953Z" fill="#CAD8E9"/>
</g>
<g style="mix-blend-mode:multiply" opacity="0.5">
<path d="M153.052 145.866C155.423 140.873 143.646 130.32 126.748 122.296C109.849 114.272 94.2281 111.815 91.8571 116.808C89.4861 121.802 101.263 132.354 118.162 140.378C135.06 148.402 150.681 150.859 153.052 145.866Z" fill="#C9D7E9"/>
</g>
<g style="mix-blend-mode:multiply" opacity="0.5">
<path d="M152.872 145.78C155.231 140.813 143.524 130.32 126.725 122.343C109.926 114.366 94.3961 111.927 92.0374 116.894C89.6787 121.861 101.385 132.355 118.184 140.331C134.983 148.308 150.513 150.748 152.872 145.78Z" fill="#C8D7E8"/>
</g>
<g style="mix-blend-mode:multiply" opacity="0.5">
<path d="M152.684 145.692C150.34 150.631 134.906 148.201 118.213 140.275C101.52 132.35 89.8794 121.916 92.2232 116.985C94.567 112.055 110.001 114.468 126.694 122.402C143.387 130.336 155.028 140.753 152.684 145.692Z" fill="#C7D6E8"/>
</g>
<g style="mix-blend-mode:multiply" opacity="0.5">
<path d="M152.504 145.606C154.834 140.699 143.269 130.333 126.674 122.453C110.078 114.573 94.7363 112.162 92.4064 117.069C90.0765 121.976 101.641 132.342 118.236 140.222C134.832 148.102 150.174 150.512 152.504 145.606Z" fill="#C6D5E8"/>
</g>
<g style="mix-blend-mode:multiply" opacity="0.5">
<path d="M152.323 145.52C154.639 140.643 143.143 130.341 126.648 122.508C110.152 114.675 94.9021 112.278 92.5866 117.155C90.2711 122.031 101.767 132.334 118.262 140.167C134.758 148 150.008 150.396 152.323 145.52Z" fill="#C5D5E7"/>
</g>
<g style="mix-blend-mode:multiply" opacity="0.5">
<path d="M152.143 145.434C154.444 140.588 143.018 130.348 126.621 122.563C110.225 114.777 95.068 112.394 92.7669 117.24C90.4658 122.087 101.892 132.327 118.288 140.112C134.685 147.898 149.842 150.28 152.143 145.434Z" fill="#C4D4E7"/>
</g>
<g style="mix-blend-mode:multiply" opacity="0.5">
<path d="M151.962 145.348C154.249 140.533 142.892 130.356 126.595 122.617C110.299 114.879 95.2338 112.51 92.9471 117.326C90.6604 122.142 102.018 132.319 118.314 140.057C134.611 147.795 149.676 150.164 151.962 145.348Z" fill="#C3D3E6"/>
</g>
<g style="mix-blend-mode:multiply" opacity="0.5">
<path d="M151.782 145.267C149.507 150.05 134.533 147.697 118.335 140.006C102.137 132.315 90.8522 122.202 93.1613 117.437C95.4703 112.671 110.41 115.006 126.608 122.697C142.806 130.388 154.056 140.475 151.782 145.267Z" fill="#C2D3E6"/>
</g>
<g style="mix-blend-mode:multiply" opacity="0.5">
<path d="M151.602 145.177C153.861 140.418 142.644 130.363 126.547 122.72C110.449 115.076 95.5676 112.738 93.3076 117.497C91.0476 122.257 102.265 132.312 118.363 139.955C134.46 147.599 149.342 149.937 151.602 145.177Z" fill="#C1D2E6"/>
</g>
<g style="mix-blend-mode:multiply" opacity="0.5">
<path d="M151.421 145.092C153.667 140.362 142.518 130.371 126.521 122.774C110.523 115.178 95.7337 112.854 93.4881 117.583C91.2425 122.312 102.391 132.304 118.389 139.9C134.387 147.496 149.176 149.821 151.421 145.092Z" fill="#C1D1E5"/>
</g>
<g style="mix-blend-mode:multiply" opacity="0.5">
<path d="M151.234 144.989C149.003 149.685 134.307 147.376 118.413 139.833C102.519 132.289 91.4335 122.35 93.6731 117.653C95.9127 112.957 110.6 115.266 126.495 122.81C142.389 130.353 153.474 140.301 151.234 144.989Z" fill="#C0D1E5"/>
</g>
<g style="mix-blend-mode:multiply" opacity="0.5">
<path d="M151.026 144.919C148.804 149.59 134.203 147.298 118.405 139.798C102.606 132.298 91.5989 122.437 93.8124 117.758C96.026 113.079 110.635 115.379 126.434 122.879C142.233 130.379 153.275 140.249 151.026 144.919Z" fill="#BFD0E5"/>
</g>
<g style="mix-blend-mode:multiply" opacity="0.5">
<path d="M150.88 144.835C153.084 140.192 142.145 130.385 126.446 122.931C110.747 115.477 96.2333 113.197 94.0289 117.84C91.8244 122.482 102.764 132.289 118.463 139.743C134.162 147.198 148.675 149.477 150.88 144.835Z" fill="#BECFE4"/>
</g>
<g style="mix-blend-mode:multiply" opacity="0.5">
<path d="M150.697 144.746C148.509 149.355 134.091 147.09 118.492 139.685C102.892 132.28 92.0242 122.541 94.1857 117.931C96.3472 113.322 110.792 115.579 126.391 122.992C141.99 130.405 152.884 140.136 150.697 144.746Z" fill="#BDCEE4"/>
</g>
<g style="mix-blend-mode:multiply" opacity="0.5">
<path d="M150.512 144.66C152.688 140.078 141.89 130.399 126.394 123.041C110.899 115.683 96.5738 113.433 94.3981 118.015C92.2225 122.597 103.02 132.276 118.516 139.633C134.011 146.991 148.336 149.242 150.512 144.66Z" fill="#BCCEE3"/>
</g>
<g style="mix-blend-mode:multiply" opacity="0.5">
<path d="M150.331 144.574C152.493 140.022 141.764 130.406 126.368 123.096C110.972 115.785 96.7394 113.549 94.5781 118.1C92.4168 122.652 103.146 132.268 118.541 139.579C133.937 146.889 148.17 149.126 150.331 144.574Z" fill="#BBCDE3"/>
</g>
<g style="mix-blend-mode:multiply" opacity="0.5">
<path d="M150.151 144.488C152.298 139.967 141.638 130.414 126.342 123.151C111.046 115.887 96.9052 113.665 94.7584 118.186C92.6115 122.707 103.271 132.261 118.567 139.524C133.864 146.787 148.004 149.01 150.151 144.488Z" fill="#BACCE3"/>
</g>
<g style="mix-blend-mode:multiply" opacity="0.5">
<path d="M149.971 144.403C152.103 139.912 141.513 130.421 126.316 123.206C111.12 115.99 97.0716 113.781 94.9391 118.272C92.8066 122.763 103.397 132.253 118.594 139.469C133.79 146.685 147.838 148.894 149.971 144.403Z" fill="#B9CCE2"/>
</g>
<g style="mix-blend-mode:multiply" opacity="0.5">
<path d="M149.79 144.317C151.911 139.852 141.391 130.421 126.294 123.253C111.197 116.084 97.2395 113.893 95.1194 118.358C92.9992 122.823 103.519 132.253 118.616 139.422C133.713 146.591 147.67 148.782 149.79 144.317Z" fill="#B8CBE2"/>
</g>
<g style="mix-blend-mode:multiply" opacity="0.5">
<path d="M149.61 144.231C151.716 139.797 141.265 130.429 126.268 123.307C111.27 116.186 97.4054 114.008 95.2996 118.443C93.1939 122.878 103.645 132.246 118.642 139.367C133.639 146.488 147.504 148.666 149.61 144.231Z" fill="#B7CAE1"/>
</g>
<g style="mix-blend-mode:multiply" opacity="0.5">
<path d="M149.429 144.121C147.337 148.522 133.57 146.36 118.665 139.286C103.76 132.211 93.3869 122.931 95.4703 118.53C97.5536 114.129 111.338 116.291 126.234 123.365C141.13 130.44 151.521 139.781 149.429 144.121Z" fill="#B6C9E1"/>
</g>
<g style="mix-blend-mode:multiply" opacity="0.5">
<path d="M149.249 144.06C151.326 139.686 141.013 130.444 126.215 123.417C111.417 116.391 97.737 114.24 95.6601 118.614C93.5831 122.988 103.896 132.23 118.694 139.257C133.492 146.284 147.172 148.434 149.249 144.06Z" fill="#B5C9E1"/>
</g>
<g style="mix-blend-mode:multiply" opacity="0.5">
<path d="M149.069 143.975C151.132 139.631 140.888 130.452 126.19 123.472C111.491 116.493 97.9034 114.356 95.8408 118.7C93.7782 123.044 104.022 132.223 118.72 139.202C133.419 146.182 147.007 148.318 149.069 143.975Z" fill="#B4C8E0"/>
</g>
<g style="mix-blend-mode:multiply" opacity="0.5">
<path d="M148.888 143.889C150.937 139.575 140.762 130.459 126.163 123.527C111.564 116.595 98.069 114.472 96.0208 118.786C93.9726 123.099 104.147 132.215 118.746 139.147C133.345 146.079 146.84 148.202 148.888 143.889Z" fill="#B3C7E0"/>
</g>
<g style="mix-blend-mode:multiply" opacity="0.5">
<path d="M148.708 143.803C150.744 139.516 140.64 130.459 126.141 123.574C111.641 116.689 98.2369 114.584 96.2011 118.871C94.1653 123.159 104.269 132.216 118.768 139.1C133.268 145.985 146.672 148.091 148.708 143.803Z" fill="#B2C7DF"/>
</g>
<g style="mix-blend-mode:multiply" opacity="0.5">
<path d="M148.52 143.714C150.541 139.457 140.51 130.464 126.114 123.629C111.719 116.793 98.4106 114.703 96.3891 118.96C94.3677 123.218 104.399 132.21 118.794 139.045C133.19 145.881 146.498 147.971 148.52 143.714Z" fill="#B1C6DF"/>
</g>
<g style="mix-blend-mode:multiply" opacity="0.5">
<path d="M148.34 143.628C150.347 139.401 140.385 130.472 126.089 123.684C111.793 116.896 98.5769 114.819 96.5699 119.046C94.5628 123.273 104.525 132.202 118.821 138.991C133.116 145.779 146.333 147.855 148.34 143.628Z" fill="#B0C5DE"/>
</g>
<g style="mix-blend-mode:multiply" opacity="0.5">
<path d="M148.162 143.548C146.165 147.741 133.04 145.675 118.847 138.939C104.654 132.202 94.7498 123.313 96.7464 119.129C98.7429 114.945 111.868 116.994 126.061 123.739C140.254 130.484 150.158 139.347 148.162 143.548Z" fill="#AFC4DE"/>
</g>
<g style="mix-blend-mode:multiply" opacity="0.5">
<path d="M147.98 143.461C146 147.593 132.971 145.579 118.908 138.913C104.845 132.246 94.9843 123.409 96.9635 119.242C98.9427 115.076 111.972 117.124 126.07 123.817C140.167 130.51 149.959 139.286 147.98 143.461Z" fill="#AEC4DE"/>
</g>
<g style="mix-blend-mode:multiply" opacity="0.5">
<path d="M147.799 143.371C149.765 139.231 140.012 130.487 126.015 123.841C112.018 117.194 99.077 115.163 97.1111 119.303C95.1452 123.443 104.898 132.187 118.895 138.834C132.892 145.48 145.833 147.512 147.799 143.371Z" fill="#ADC3DD"/>
</g>
<g style="mix-blend-mode:multiply" opacity="0.5">
<path d="M147.618 143.286C149.57 139.176 139.885 130.495 125.988 123.896C112.091 117.297 99.2426 115.279 97.2911 119.389C95.3396 123.499 105.024 132.18 118.921 138.779C132.818 145.378 145.666 147.396 147.618 143.286Z" fill="#ACC2DD"/>
</g>
<g style="mix-blend-mode:multiply" opacity="0.5">
<path d="M147.438 143.2C149.375 139.12 139.76 130.502 125.962 123.951C112.164 117.399 99.4085 115.395 97.4713 119.474C95.5342 123.554 105.149 132.172 118.947 138.724C132.745 145.276 145.5 147.28 147.438 143.2Z" fill="#ABC1DC"/>
</g>
<g style="mix-blend-mode:multiply" opacity="0.5">
<path d="M147.258 143.114C145.331 147.159 132.666 145.171 118.968 138.669C105.27 132.168 95.73 123.609 97.6484 119.572C99.5669 115.536 112.241 117.515 125.939 124.017C139.637 130.518 149.177 139.069 147.258 143.114Z" fill="#AAC1DC"/>
</g>
<g style="mix-blend-mode:multiply" opacity="0.5">
<path d="M147.078 143.029C148.986 139.01 139.509 130.517 125.911 124.06C112.312 117.603 99.7411 115.627 97.8328 119.646C95.9245 123.665 105.401 132.157 119 138.614C132.598 145.071 145.169 147.048 147.078 143.029Z" fill="#A9C0DC"/>
</g>
<g style="mix-blend-mode:multiply" opacity="0.5">
<path d="M146.897 142.943C148.791 138.955 139.383 130.525 125.884 124.115C112.385 117.705 99.907 115.743 98.013 119.731C96.1191 123.72 105.527 132.15 119.026 138.559C132.525 144.969 145.003 146.932 146.897 142.943Z" fill="#A8BFDB"/>
</g>
<g style="mix-blend-mode:multiply" opacity="0.5">
<path d="M146.686 142.853C144.802 146.821 132.424 144.867 119.021 138.513C105.618 132.159 96.2862 123.756 98.1872 119.815C100.088 115.874 112.45 117.801 125.852 124.155C139.255 130.51 148.596 138.912 146.686 142.853Z" fill="#A7BEDB"/>
</g>
<g style="mix-blend-mode:multiply" opacity="0.5">
<path d="M146.529 142.767C144.663 146.699 132.371 144.772 119.073 138.426C105.774 132.081 96.5029 123.808 98.3779 119.876C100.253 115.944 112.536 117.879 125.835 124.216C139.134 130.553 148.422 138.843 146.529 142.767Z" fill="#A6BEDA"/>
</g>
<g style="mix-blend-mode:multiply" opacity="0.5">
<path d="M146.348 142.683C148.2 138.78 139.005 130.538 125.809 124.272C112.613 118.006 100.414 116.09 98.5614 119.992C96.7085 123.894 105.904 132.137 119.1 138.402C132.295 144.668 144.495 146.585 146.348 142.683Z" fill="#A5BDDA"/>
</g>
<g style="mix-blend-mode:multiply" opacity="0.5">
<path d="M146.174 142.602C144.333 146.473 132.224 144.564 119.125 138.348C106.026 132.133 96.9023 123.947 98.7339 120.119C100.566 116.291 112.684 118.148 125.783 124.372C138.882 130.596 148.005 138.73 146.174 142.602Z" fill="#A4BCD9"/>
</g>
<g style="mix-blend-mode:multiply" opacity="0.5">
<path d="M145.991 142.515C144.168 146.352 132.145 144.468 119.151 138.296C106.156 132.124 97.0931 124.008 98.942 120.162C100.791 116.317 112.788 118.209 125.783 124.381C138.777 130.553 147.814 138.669 145.991 142.515Z" fill="#A3BBD9"/>
</g>
<g style="mix-blend-mode:multiply" opacity="0.5">
<path d="M145.806 142.426C147.616 138.615 138.628 130.561 125.731 124.437C112.834 118.313 100.912 116.438 99.1021 120.249C97.2924 124.06 106.281 132.114 119.178 138.238C132.074 144.362 143.997 146.237 145.806 142.426Z" fill="#A1BAD8"/>
</g>
<g style="mix-blend-mode:multiply" opacity="0.5">
<path d="M145.627 142.385C143.83 146.17 131.999 144.312 119.203 138.236C106.408 132.159 97.5018 124.164 99.238 120.379C100.974 116.595 112.867 118.452 125.662 124.529C138.457 130.605 147.424 138.557 145.627 142.385Z" fill="#A0BAD8"/>
</g>
<g style="mix-blend-mode:multiply" opacity="0.5">
<path d="M145.446 142.254C147.229 138.5 138.381 130.568 125.683 124.539C112.985 118.509 101.246 116.665 99.4636 120.42C97.6807 124.175 106.529 132.107 119.227 138.136C131.924 144.165 143.663 146.009 145.446 142.254Z" fill="#9FB9D8"/>
</g>
<g style="mix-blend-mode:multiply" opacity="0.5">
<path d="M145.266 142.169C147.035 138.444 138.256 130.576 125.657 124.594C113.059 118.612 101.413 116.781 99.6443 120.506C97.8758 124.23 106.655 132.099 119.253 138.081C131.851 144.063 143.498 145.893 145.266 142.169Z" fill="#9EB8D7"/>
</g>
<g style="mix-blend-mode:multiply" opacity="0.5">
<path d="M145.085 142.083C146.839 138.389 138.129 130.583 125.631 124.648C113.132 118.714 101.578 116.897 99.8238 120.591C98.0697 124.286 106.78 132.091 119.278 138.026C131.777 143.961 143.331 145.777 145.085 142.083Z" fill="#9DB7D7"/>
</g>
<g style="mix-blend-mode:multiply" opacity="0.5">
<path d="M144.949 141.994C143.213 145.657 131.746 143.861 119.35 137.975C106.954 132.09 98.3082 124.347 100.044 120.683C101.78 117.02 113.248 118.817 125.652 124.702C138.057 130.588 146.685 138.331 144.949 141.994Z" fill="#9CB6D6"/>
</g>
<g style="mix-blend-mode:multiply" opacity="0.5">
<path d="M144.724 141.907C142.988 145.544 131.625 143.756 119.325 137.923C107.024 132.089 98.491 124.398 100.227 120.761C101.963 117.124 113.326 118.912 125.627 124.754C137.927 130.596 146.452 138.279 144.724 141.907Z" fill="#9BB6D6"/>
</g>
<g style="mix-blend-mode:multiply" opacity="0.5">
<path d="M144.542 141.821C142.806 145.432 131.521 143.661 119.368 137.871C107.215 132.081 98.6734 124.459 100.383 120.848C102.094 117.237 113.404 119.016 125.557 124.806C137.71 130.596 146.252 138.218 144.542 141.821Z" fill="#9AB5D5"/>
</g>
<g style="mix-blend-mode:multiply" opacity="0.5">
<path d="M144.356 141.737C146.054 138.16 137.626 130.604 125.53 124.86C113.434 119.117 102.252 117.36 100.553 120.938C98.8545 124.515 107.283 132.071 119.379 137.814C131.475 143.558 142.657 145.314 144.356 141.737Z" fill="#99B4D5"/>
</g>
<g style="mix-blend-mode:multiply" opacity="0.5">
<path d="M144.176 141.651C145.86 138.104 137.501 130.611 125.504 124.915C113.508 119.219 102.418 117.476 100.734 121.023C99.0496 124.57 107.409 132.063 119.405 137.759C131.402 143.456 142.492 145.198 144.176 141.651Z" fill="#98B3D4"/>
</g>
<g style="mix-blend-mode:multiply" opacity="0.5">
<path d="M143.995 141.566C145.665 138.049 137.374 130.619 125.478 124.97C113.581 119.321 102.584 117.592 100.914 121.109C99.244 124.626 107.534 132.056 119.431 137.705C131.328 143.353 142.325 145.082 143.995 141.566Z" fill="#97B2D4"/>
</g>
<g style="mix-blend-mode:multiply" opacity="0.5">
<path d="M143.813 141.517C142.163 144.989 131.252 143.253 119.455 137.688C107.658 132.124 99.4372 124.72 101.095 121.195C102.753 117.671 113.656 119.459 125.453 125.023C137.25 130.588 145.471 137.992 143.813 141.517Z" fill="#96B2D4"/>
</g>
<g style="mix-blend-mode:multiply" opacity="0.5">
<path d="M143.64 141.395C141.99 144.867 131.183 143.131 119.481 137.602C107.78 132.072 99.6288 124.737 101.252 121.282C102.875 117.827 113.709 119.546 125.41 125.075C137.112 130.605 145.28 137.94 143.64 141.395Z" fill="#94B1D3"/>
</g>
<g style="mix-blend-mode:multiply" opacity="0.5">
<path d="M143.456 141.308C141.824 144.781 131.104 143.044 119.506 137.55C107.909 132.055 99.8273 124.798 101.451 121.369C103.074 117.94 113.803 119.633 125.4 125.128C136.998 130.622 145.079 137.879 143.456 141.308Z" fill="#93B0D3"/>
</g>
<g style="mix-blend-mode:multiply" opacity="0.5">
<path d="M143.274 141.223C144.888 137.823 136.876 130.641 125.377 125.182C113.879 119.722 103.25 118.052 101.635 121.452C100.021 124.851 108.033 132.033 119.532 137.493C131.03 142.953 141.66 144.623 143.274 141.223Z" fill="#92AFD2"/>
</g>
<g style="mix-blend-mode:multiply" opacity="0.5">
<path d="M143.094 141.137C144.694 137.768 136.75 130.649 125.352 125.237C113.953 119.824 103.416 118.168 101.816 121.537C100.216 124.907 108.16 132.026 119.558 137.438C130.957 142.85 141.494 144.507 143.094 141.137Z" fill="#91AED2"/>
</g>
<g style="mix-blend-mode:multiply" opacity="0.5">
<path d="M142.913 141.052C144.499 137.713 136.624 130.657 125.326 125.292C114.027 119.926 103.582 118.284 101.996 121.623C100.411 124.962 108.285 132.018 119.584 137.383C130.883 142.748 141.328 144.391 142.913 141.052Z" fill="#90AED1"/>
</g>
<g style="mix-blend-mode:multiply" opacity="0.5">
<path d="M142.733 140.966C144.304 137.657 136.499 130.664 125.3 125.346C114.101 120.029 103.748 118.4 102.177 121.709C100.606 125.017 108.411 132.01 119.61 137.328C130.81 142.646 141.162 144.275 142.733 140.966Z" fill="#8FADD1"/>
</g>
<g style="mix-blend-mode:multiply" opacity="0.5">
<path d="M142.553 140.88C144.112 137.598 136.377 130.664 125.277 125.393C114.178 120.123 103.916 118.511 102.357 121.794C100.799 125.077 108.533 132.011 119.633 137.281C130.732 142.552 140.994 144.163 142.553 140.88Z" fill="#8EACD0"/>
</g>
<g style="mix-blend-mode:multiply" opacity="0.5">
<path d="M142.372 140.795C143.917 137.542 136.251 130.672 125.251 125.448C114.251 120.225 104.082 118.627 102.537 121.88C100.993 125.132 108.658 132.003 119.658 137.226C130.659 142.45 140.828 144.047 142.372 140.795Z" fill="#8DABD0"/>
</g>
<g style="mix-blend-mode:multiply" opacity="0.5">
<path d="M142.184 140.705C143.714 137.483 136.121 130.677 125.225 125.503C114.329 120.329 104.255 118.747 102.725 121.969C101.195 125.191 108.788 131.997 119.684 137.171C130.581 142.345 140.654 143.928 142.184 140.705Z" fill="#8CAACF"/>
</g>
<g style="mix-blend-mode:multiply" opacity="0.5">
<path d="M142.003 140.62C143.519 137.428 135.995 130.685 125.199 125.558C114.402 120.431 104.421 118.863 102.906 122.055C101.39 125.247 108.914 131.99 119.71 137.116C130.507 142.243 140.488 143.812 142.003 140.62Z" fill="#8AA9CF"/>
</g>
<g style="mix-blend-mode:multiply" opacity="0.5">
<path d="M141.825 140.536C140.323 143.695 130.436 142.142 119.733 137.063C109.03 131.985 101.547 125.301 103.083 122.141C104.62 118.982 114.472 120.535 125.176 125.614C135.879 130.692 143.327 137.376 141.825 140.536Z" fill="#89A9CF"/>
</g>
<g style="mix-blend-mode:multiply" opacity="0.5">
<path d="M141.643 140.449C143.129 137.317 135.744 130.7 125.147 125.668C114.549 120.636 104.753 119.095 103.266 122.226C101.779 125.357 109.165 131.975 119.762 137.007C130.36 142.039 140.156 143.58 141.643 140.449Z" fill="#88A8CE"/>
</g>
<g style="mix-blend-mode:multiply" opacity="0.5">
<path d="M141.477 140.362C140.01 143.47 130.305 141.942 119.776 136.959C109.246 131.977 101.963 125.414 103.439 122.315C104.915 119.216 114.611 120.735 125.141 125.718C135.67 130.701 142.936 137.263 141.477 140.362Z" fill="#87A7CE"/>
</g>
<g style="mix-blend-mode:multiply" opacity="0.5">
<path d="M141.278 140.275C139.819 143.348 130.21 141.838 119.811 136.907C109.411 131.977 102.163 125.475 103.63 122.419C105.097 119.364 114.698 120.848 125.097 125.787C135.496 130.727 142.745 137.176 141.278 140.275Z" fill="#86A6CD"/>
</g>
<g style="mix-blend-mode:multiply" opacity="0.5">
<path d="M141.104 140.189C139.654 143.236 130.132 141.742 119.836 136.847C109.541 131.951 102.362 125.562 103.803 122.48C105.244 119.398 114.775 120.935 125.071 125.822C135.366 130.709 142.545 137.176 141.104 140.189Z" fill="#85A5CD"/>
</g>
<g style="mix-blend-mode:multiply" opacity="0.5">
<path d="M140.922 140.102C139.49 143.123 130.062 141.638 119.863 136.794C109.663 131.951 102.553 125.588 103.986 122.567C105.418 119.546 114.845 121.039 125.045 125.883C135.245 130.727 142.345 137.09 140.922 140.102Z" fill="#84A4CC"/>
</g>
<g style="mix-blend-mode:multiply" opacity="0.5">
<path d="M140.739 140.024C139.324 143.001 129.984 141.534 119.906 136.742C109.828 131.951 102.753 125.64 104.15 122.654C105.548 119.667 114.906 121.135 124.984 125.935C135.062 130.735 142.154 137.037 140.739 140.024Z" fill="#82A4CC"/>
</g>
<g style="mix-blend-mode:multiply" opacity="0.5">
<path d="M140.557 139.937C139.151 142.888 129.915 141.439 119.915 136.69C109.915 131.942 102.944 125.701 104.35 122.74C105.757 119.78 114.993 121.239 124.993 125.987C134.993 130.735 141.963 136.977 140.557 139.937Z" fill="#81A3CB"/>
</g>
<g style="mix-blend-mode:multiply" opacity="0.5">
<path d="M140.38 139.849C141.771 136.922 134.872 130.737 124.972 126.036C115.072 121.336 105.919 119.898 104.529 122.826C103.139 125.753 110.038 131.937 119.938 136.638C129.838 141.339 138.99 142.777 140.38 139.849Z" fill="#80A2CB"/>
</g>
<g style="mix-blend-mode:multiply" opacity="0.5">
<path d="M140.192 139.76C141.568 136.862 134.741 130.743 124.945 126.091C115.149 121.44 106.093 120.018 104.717 122.915C103.341 125.812 110.167 131.932 119.963 136.583C129.76 141.235 138.816 142.657 140.192 139.76Z" fill="#7FA1CA"/>
</g>
<g style="mix-blend-mode:multiply" opacity="0.5">
<path d="M140.011 139.676C138.657 142.541 129.689 141.135 119.993 136.525C110.297 131.916 103.5 125.865 104.898 123.001C106.295 120.136 115.219 121.542 124.915 126.143C134.611 130.744 141.374 136.812 140.011 139.676Z" fill="#7EA0CA"/>
</g>
<g style="mix-blend-mode:multiply" opacity="0.5">
<path d="M139.831 139.588C141.178 136.752 134.49 130.758 124.893 126.201C115.296 121.644 106.425 120.25 105.078 123.086C103.731 125.923 110.419 131.917 120.016 136.474C129.613 141.031 138.484 142.425 139.831 139.588Z" fill="#7D9FC9"/>
</g>
<g style="mix-blend-mode:multiply" opacity="0.5">
<path d="M139.651 139.503C140.984 136.697 134.365 130.766 124.868 126.256C115.37 121.746 106.591 120.366 105.258 123.172C103.926 125.978 110.545 131.909 120.042 136.419C129.54 140.928 138.319 142.309 139.651 139.503Z" fill="#7B9EC9"/>
</g>
<g style="mix-blend-mode:multiply" opacity="0.5">
<path d="M139.472 139.416C138.153 142.194 129.463 140.831 120.062 136.369C110.661 131.907 104.151 126.039 105.435 123.287C106.72 120.535 115.444 121.872 124.845 126.334C134.246 130.796 140.792 136.638 139.472 139.416Z" fill="#7A9EC8"/>
</g>
<g style="mix-blend-mode:multiply" opacity="0.5">
<path d="M139.29 139.332C140.596 136.582 134.117 130.773 124.819 126.358C115.521 121.943 106.924 120.593 105.619 123.343C104.313 126.093 110.792 131.902 120.09 136.317C129.388 140.732 137.984 142.082 139.29 139.332Z" fill="#799DC8"/>
</g>
<g style="mix-blend-mode:multiply" opacity="0.5">
<path d="M139.107 139.242C137.814 141.968 129.316 140.631 120.114 136.265C110.913 131.899 104.489 126.152 105.8 123.426C107.111 120.701 115.592 122.046 124.793 126.412C133.995 130.779 140.401 136.525 139.107 139.242Z" fill="#789CC7"/>
</g>
<g style="mix-blend-mode:multiply" opacity="0.5">
<path d="M138.925 139.155C137.649 141.846 129.238 140.527 120.14 136.204C111.043 131.881 104.706 126.204 105.982 123.513C107.258 120.822 115.67 122.15 124.767 126.464C133.864 130.779 140.201 136.473 138.925 139.155Z" fill="#779BC7"/>
</g>
<g style="mix-blend-mode:multiply" opacity="0.5">
<path d="M138.743 139.077C137.485 141.734 129.195 140.423 120.167 136.152C111.139 131.881 104.897 126.265 106.165 123.6C107.432 120.935 115.714 122.246 124.741 126.525C133.769 130.805 140.011 136.412 138.743 139.077Z" fill="#759AC6"/>
</g>
<g style="mix-blend-mode:multiply" opacity="0.5">
<path d="M138.57 138.991C137.32 141.595 129.09 140.327 120.193 136.1C111.295 131.873 105.097 126.317 106.304 123.687C107.51 121.056 115.783 122.35 124.681 126.577C133.578 130.805 139.82 136.36 138.57 138.991Z" fill="#7499C6"/>
</g>
<g style="mix-blend-mode:multiply" opacity="0.5">
<path d="M138.387 138.912C137.146 141.517 129.012 140.232 120.219 136.057C111.425 131.881 105.288 126.386 106.521 123.782C107.753 121.178 115.896 122.463 124.689 126.638C133.483 130.813 139.62 136.308 138.387 138.912Z" fill="#7398C5"/>
</g>
<g style="mix-blend-mode:multiply" opacity="0.5">
<path d="M138.205 138.817C136.981 141.421 128.943 140.128 120.245 135.996C111.547 131.864 105.488 126.447 106.703 123.843C107.918 121.239 115.965 122.532 124.663 126.664C133.361 130.796 139.429 136.247 138.205 138.817Z" fill="#7297C5"/>
</g>
<g style="mix-blend-mode:multiply" opacity="0.5">
<path d="M138.02 138.728C139.227 136.186 133.237 130.816 124.64 126.734C116.044 122.652 108.096 121.404 106.889 123.946C105.682 126.488 111.672 131.858 120.269 135.94C128.866 140.022 136.813 141.271 138.02 138.728Z" fill="#7197C4"/>
</g>
<g style="mix-blend-mode:multiply" opacity="0.5">
<path d="M137.84 138.643C139.033 136.131 133.111 130.824 124.614 126.789C116.117 122.755 108.262 121.52 107.07 124.032C105.877 126.544 111.798 131.851 120.295 135.885C128.792 139.92 136.647 141.155 137.84 138.643Z" fill="#6F96C4"/>
</g>
<g style="mix-blend-mode:multiply" opacity="0.5">
<path d="M137.658 138.556C136.486 141.039 128.717 139.824 120.297 135.831C111.877 131.838 106.069 126.603 107.25 124.155C108.431 121.707 116.191 122.888 124.611 126.872C133.031 130.857 138.874 136.074 137.658 138.556Z" fill="#6E95C3"/>
</g>
<g style="mix-blend-mode:multiply" opacity="0.5">
<path d="M137.479 138.471C138.643 136.02 132.86 130.839 124.562 126.899C116.264 122.959 108.594 121.752 107.43 124.203C106.266 126.654 112.049 131.835 120.347 135.775C128.645 139.715 136.315 140.922 137.479 138.471Z" fill="#6D94C3"/>
</g>
<g style="mix-blend-mode:multiply" opacity="0.5">
<path d="M137.299 138.386C138.45 135.961 132.738 130.839 124.54 126.946C116.342 123.053 108.762 121.864 107.611 124.289C106.459 126.714 112.171 131.836 120.369 135.729C128.568 139.621 136.147 140.811 137.299 138.386Z" fill="#6C93C2"/>
</g>
<g style="mix-blend-mode:multiply" opacity="0.5">
<path d="M137.137 138.296C136 140.692 128.509 139.52 120.41 135.692C112.311 131.864 106.668 126.786 107.805 124.407C108.943 122.029 116.434 123.192 124.533 127.011C132.632 130.831 138.257 135.909 137.137 138.296Z" fill="#6B92C2"/>
</g>
<g style="mix-blend-mode:multiply" opacity="0.5">
<path d="M136.938 138.215C138.061 135.85 132.487 130.854 124.488 127.056C116.489 123.258 109.094 122.096 107.971 124.46C106.849 126.825 112.423 131.821 120.422 135.619C128.421 139.417 135.815 140.579 136.938 138.215Z" fill="#6991C1"/>
</g>
<g style="mix-blend-mode:multiply" opacity="0.5">
<path d="M136.758 138.129C137.866 135.794 132.361 130.861 124.462 127.111C116.562 123.36 109.26 122.211 108.152 124.546C107.043 126.88 112.548 131.813 120.448 135.564C128.347 139.315 135.649 140.463 136.758 138.129Z" fill="#6890C1"/>
</g>
<g style="mix-blend-mode:multiply" opacity="0.5">
<path d="M136.573 138.044C135.479 140.345 128.274 139.216 120.47 135.51C112.666 131.803 107.241 126.942 108.317 124.633C109.394 122.324 116.616 123.461 124.42 127.159C132.224 130.857 137.667 135.735 136.573 138.044Z" fill="#678FC0"/>
</g>
<g style="mix-blend-mode:multiply" opacity="0.5">
<path d="M136.39 137.958C135.314 140.232 128.196 139.112 120.496 135.457C112.796 131.803 107.432 126.994 108.517 124.72C109.602 122.445 116.711 123.565 124.411 127.22C132.111 130.874 137.476 135.683 136.39 137.958Z" fill="#668FC0"/>
</g>
<g style="mix-blend-mode:multiply" opacity="0.5">
<path d="M136.217 137.871C135.149 140.119 128.118 139.017 120.522 135.406C112.927 131.794 107.632 127.055 108.699 124.807C109.767 122.558 116.79 123.661 124.385 127.272C131.981 130.883 137.276 135.623 136.217 137.871Z" fill="#648EBF"/>
</g>
<g style="mix-blend-mode:multiply" opacity="0.5">
<path d="M136.028 137.783C137.081 135.565 131.857 130.882 124.361 127.323C116.864 123.763 109.934 122.675 108.881 124.892C107.828 127.109 113.052 131.793 120.548 135.352C128.045 138.912 134.975 140 136.028 137.783Z" fill="#638DBF"/>
</g>
<g style="mix-blend-mode:multiply" opacity="0.5">
<path d="M135.852 137.697C134.81 139.885 127.97 138.808 120.574 135.301C113.178 131.794 108.022 127.167 109.055 124.98C110.088 122.792 116.937 123.86 124.333 127.376C131.729 130.891 136.885 135.51 135.852 137.697Z" fill="#628CBE"/>
</g>
<g style="mix-blend-mode:multiply" opacity="0.5">
<path d="M135.67 137.61C134.646 139.772 127.901 138.713 120.601 135.241C113.3 131.768 108.213 127.22 109.238 125.067C110.262 122.914 117.05 123.964 124.307 127.428C131.564 130.892 136.694 135.44 135.67 137.61Z" fill="#618BBE"/>
</g>
<g style="mix-blend-mode:multiply" opacity="0.5">
<path d="M135.488 137.523C134.481 139.659 127.823 138.609 120.626 135.188C113.43 131.768 108.413 127.28 109.42 125.145C110.427 123.009 117.085 124.068 124.281 127.48C131.477 130.891 136.494 135.44 135.488 137.523Z" fill="#5F8ABD"/>
</g>
<g style="mix-blend-mode:multiply" opacity="0.5">
<path d="M135.305 137.437C134.307 139.537 127.744 138.504 120.652 135.136C113.56 131.768 108.603 127.324 109.601 125.232C110.6 123.14 117.171 124.155 124.254 127.541C131.338 130.926 136.268 135.345 135.305 137.437Z" fill="#5E89BD"/>
</g>
<g style="mix-blend-mode:multiply" opacity="0.5">
<path d="M135.126 137.354C136.109 135.284 131.232 130.912 124.234 127.589C117.235 124.266 110.765 123.25 109.782 125.32C108.799 127.39 113.676 131.762 120.674 135.085C127.673 138.409 134.143 139.424 135.126 137.354Z" fill="#5D88BC"/>
</g>
<g style="mix-blend-mode:multiply" opacity="0.5">
<path d="M134.946 137.269C135.915 135.229 131.107 130.92 124.208 127.644C117.309 124.368 110.932 123.366 109.963 125.406C108.994 127.446 113.802 131.755 120.701 135.031C127.6 138.306 133.977 139.308 134.946 137.269Z" fill="#5C87BC"/>
</g>
<g style="mix-blend-mode:multiply" opacity="0.5">
<path d="M134.768 137.176C133.813 139.182 127.528 138.201 120.722 134.971C113.917 131.742 109.186 127.497 110.141 125.484C111.095 123.47 117.38 124.459 124.186 127.688C130.991 130.918 135.722 135.171 134.768 137.176Z" fill="#5A86BB"/>
</g>
<g style="mix-blend-mode:multiply" opacity="0.5">
<path d="M134.585 137.098C133.639 139.077 127.45 138.105 120.748 134.919C114.047 131.734 109.385 127.558 110.331 125.579C111.278 123.6 117.467 124.572 124.168 127.749C130.87 130.926 135.523 135.119 134.585 137.098Z" fill="#5985BB"/>
</g>
<g style="mix-blend-mode:multiply" opacity="0.5">
<path d="M134.403 137.011C133.474 138.965 127.371 138.001 120.774 134.867C114.177 131.734 109.576 127.619 110.505 125.666C111.434 123.713 117.536 124.676 124.134 127.801C130.731 130.926 135.332 135.058 134.403 137.011Z" fill="#5884BA"/>
</g>
<g style="mix-blend-mode:multiply" opacity="0.5">
<path d="M134.22 136.924C133.352 138.843 127.276 137.905 120.8 134.815C114.324 131.725 109.776 127.671 110.687 125.753C111.599 123.834 117.632 124.772 124.107 127.862C130.583 130.952 135.132 135.006 134.22 136.924Z" fill="#5784BA"/>
</g>
<g style="mix-blend-mode:multiply" opacity="0.5">
<path d="M134.038 136.838C133.17 138.73 127.223 137.801 120.826 134.763C114.428 131.725 109.966 127.732 110.869 125.839C111.772 123.947 117.683 124.876 124.081 127.914C130.479 130.952 134.94 134.945 134.038 136.838Z" fill="#5583B9"/>
</g>
<g style="mix-blend-mode:multiply" opacity="0.5">
<path d="M133.856 136.751C134.74 134.889 130.353 130.955 124.056 127.965C117.759 124.975 111.937 124.061 111.053 125.923C110.169 127.786 114.557 131.719 120.853 134.709C127.15 137.699 132.972 138.613 133.856 136.751Z" fill="#5482B9"/>
</g>
<g style="mix-blend-mode:multiply" opacity="0.5">
<path d="M133.665 136.664C132.797 138.496 127.059 137.602 120.861 134.659C114.663 131.716 110.34 127.845 111.208 125.978C112.076 124.112 117.814 125.05 124.012 127.992C130.21 130.935 134.533 134.833 133.665 136.664Z" fill="#5381B8"/>
</g>
<g style="mix-blend-mode:multiply" opacity="0.5">
<path d="M133.496 136.58C134.351 134.778 130.101 130.971 124.004 128.075C117.906 125.18 112.269 124.293 111.414 126.095C110.558 127.896 114.808 131.704 120.906 134.599C127.004 137.495 132.64 138.381 133.496 136.58Z" fill="#5280B8"/>
</g>
<g style="mix-blend-mode:multiply" opacity="0.5">
<path d="M133.317 136.499C132.449 138.235 126.928 137.367 120.93 134.546C114.932 131.725 110.748 127.957 111.59 126.178C112.432 124.398 117.979 125.31 123.977 128.122C129.975 130.935 134.159 134.72 133.317 136.499Z" fill="#507FB7"/>
</g>
<g style="mix-blend-mode:multiply" opacity="0.5">
<path d="M133.136 136.413C132.311 138.149 126.851 137.281 120.983 134.494C115.115 131.708 110.974 128.01 111.799 126.265C112.623 124.52 118.083 125.397 123.951 128.183C129.82 130.97 133.96 134.668 133.136 136.413Z" fill="#4F7EB7"/>
</g>
<g style="mix-blend-mode:multiply" opacity="0.5">
<path d="M132.953 136.308C132.137 138.044 126.781 137.176 120.982 134.425C115.183 131.673 111.138 128.053 111.954 126.334C112.77 124.615 118.126 125.466 123.925 128.218C129.724 130.97 133.769 134.572 132.953 136.308Z" fill="#4E7DB6"/>
</g>
<g style="mix-blend-mode:multiply" opacity="0.5">
<path d="M132.796 136.239C131.998 137.923 126.72 137.107 121.034 134.39C115.348 131.673 111.364 128.122 112.162 126.438C112.961 124.754 118.239 125.57 123.925 128.287C129.611 131.004 133.569 134.572 132.796 136.239Z" fill="#4C7CB5"/>
</g>
<g style="mix-blend-mode:multiply" opacity="0.5">
<path d="M132.589 136.152C131.807 137.81 126.634 137.02 121.035 134.338C115.436 131.656 111.529 128.183 112.354 126.525C113.179 124.867 118.309 125.657 123.908 128.34C129.507 131.022 133.379 134.494 132.589 136.152Z" fill="#4B7BB5"/>
</g>
<g style="mix-blend-mode:multiply" opacity="0.5">
<path d="M132.415 136.065C131.642 137.689 126.555 136.89 121.06 134.277C115.566 131.664 111.729 128.201 112.493 126.612C113.257 125.023 118.352 125.744 123.856 128.348C129.359 130.952 133.179 134.442 132.415 136.065Z" fill="#4A7AB4"/>
</g>
<g style="mix-blend-mode:multiply" opacity="0.5">
<path d="M132.232 135.979C131.468 137.576 126.477 136.794 121.077 134.242C115.678 131.69 111.919 128.314 112.675 126.716C113.43 125.119 118.43 125.9 123.829 128.452C129.229 131.005 132.987 134.381 132.232 135.979Z" fill="#4979B4"/>
</g>
<g style="mix-blend-mode:multiply" opacity="0.5">
<path d="M132.051 135.892C131.304 137.463 126.408 136.69 121.104 134.155C115.8 131.621 112.111 128.331 112.858 126.768C113.604 125.206 118.5 125.97 123.804 128.504C129.108 131.039 132.797 134.329 132.051 135.892Z" fill="#4778B3"/>
</g>
<g style="mix-blend-mode:multiply" opacity="0.5">
<path d="M131.868 135.805C131.139 137.341 126.33 136.586 121.13 134.121C115.93 131.655 112.311 128.409 113.04 126.864C113.769 125.319 118.578 126.082 123.778 128.556C128.977 131.03 132.597 134.268 131.868 135.805Z" fill="#4677B3"/>
</g>
<g style="mix-blend-mode:multiply" opacity="0.5">
<path d="M131.686 135.718C130.974 137.229 126.261 136.491 121.156 134.069C116.052 131.647 112.476 128.461 113.222 126.951C113.969 125.44 118.648 126.187 123.752 128.609C128.856 131.031 132.407 134.216 131.686 135.718Z" fill="#4576B2"/>
</g>
<g style="mix-blend-mode:multiply" opacity="0.5">
<path d="M131.504 135.634C132.205 134.157 128.722 131.036 123.724 128.663C118.727 126.29 114.107 125.564 113.405 127.04C112.704 128.517 116.187 131.638 121.185 134.011C126.183 136.384 130.802 137.111 131.504 135.634Z" fill="#4375B2"/>
</g>
<g style="mix-blend-mode:multiply" opacity="0.5">
<path d="M131.321 135.553C130.636 136.994 126.113 136.282 121.208 133.956C116.304 131.63 112.892 128.574 113.587 127.124C114.281 125.675 118.795 126.386 123.7 128.713C128.604 131.039 132.016 134.104 131.321 135.553Z" fill="#4274B1"/>
</g>
<g style="mix-blend-mode:multiply" opacity="0.5">
<path d="M131.147 135.44C130.47 136.855 126.035 136.161 121.234 133.878C116.434 131.595 113.092 128.609 113.76 127.185C114.429 125.761 118.873 126.465 123.673 128.739C128.474 131.013 131.816 134.043 131.147 135.44Z" fill="#4173B1"/>
</g>
<g style="mix-blend-mode:multiply" opacity="0.5">
<path d="M130.965 135.379C130.306 136.768 125.957 136.083 121.26 133.852C116.564 131.621 113.283 128.687 113.943 127.298C114.602 125.909 118.951 126.595 123.647 128.826C128.344 131.056 131.625 133.99 130.965 135.379Z" fill="#3F72B0"/>
</g>
<g style="mix-blend-mode:multiply" opacity="0.5">
<path d="M130.782 135.293C130.131 136.656 125.887 135.987 121.286 133.8C116.685 131.612 113.473 128.748 114.124 127.385C114.775 126.022 119.02 126.69 123.621 128.878C128.222 131.065 131.425 133.93 130.782 135.293Z" fill="#3E72B0"/>
</g>
<g style="mix-blend-mode:multiply" opacity="0.5">
<path d="M130.6 135.206C129.967 136.534 125.809 135.883 121.312 133.747C116.816 131.612 113.673 128.8 114.307 127.471C114.941 126.143 119.099 126.794 123.595 128.93C128.092 131.065 131.234 133.878 130.6 135.206Z" fill="#3D71AF"/>
</g>
<g style="mix-blend-mode:multiply" opacity="0.5">
<path d="M130.419 135.119C129.802 136.421 125.731 135.779 121.339 133.695C116.946 131.612 113.873 128.86 114.49 127.558C115.106 126.256 119.177 126.89 123.569 128.982C127.962 131.074 131.061 133.817 130.419 135.119Z" fill="#3B70AE"/>
</g>
<g style="mix-blend-mode:multiply" opacity="0.5">
<path d="M130.236 135.032C129.637 136.308 125.662 135.683 121.365 133.643C117.068 131.603 114.064 128.912 114.672 127.645C115.28 126.378 119.247 126.994 123.543 129.034C127.84 131.074 130.844 133.765 130.236 135.032Z" fill="#3A6FAE"/>
</g>
<g style="mix-blend-mode:multiply" opacity="0.5">
<path d="M130.054 134.945C129.472 136.187 125.584 135.579 121.373 133.582C117.163 131.586 114.247 128.973 114.837 127.723C115.427 126.473 119.307 127.098 123.518 129.086C127.728 131.074 130.644 133.704 130.054 134.945Z" fill="#396EAD"/>
</g>
<g style="mix-blend-mode:multiply" opacity="0.5">
<path d="M129.88 134.859C129.298 136.074 125.54 135.475 121.408 133.53C117.276 131.586 114.463 129.025 115.027 127.81C115.592 126.595 119.368 127.194 123.5 129.147C127.632 131.1 130.453 133.652 129.88 134.859Z" fill="#376DAD"/>
</g>
<g style="mix-blend-mode:multiply" opacity="0.5">
<path d="M129.698 134.772C129.134 135.961 125.436 135.38 121.434 133.478C117.432 131.577 114.655 129.086 115.21 127.897C115.766 126.708 119.472 127.298 123.474 129.199C127.476 131.1 130.254 133.591 129.698 134.772Z" fill="#366CAC"/>
</g>
<g style="mix-blend-mode:multiply" opacity="0.5">
<path d="M129.515 134.694C128.969 135.839 125.366 135.275 121.46 133.426C117.553 131.577 114.845 129.138 115.383 127.983C115.922 126.829 119.533 127.402 123.439 129.251C127.345 131.1 130.062 133.539 129.515 134.694Z" fill="#356BAC"/>
</g>
<g style="mix-blend-mode:multiply" opacity="0.5">
<path d="M129.324 134.572C128.795 135.692 125.279 135.136 121.512 133.339C117.744 131.543 115.071 129.155 115.6 128.036C116.13 126.916 119.646 127.463 123.413 129.268C127.18 131.074 129.863 133.478 129.324 134.572Z" fill="#336AAB"/>
</g>
<g style="mix-blend-mode:multiply" opacity="0.5">
<path d="M129.151 134.52C128.63 135.614 125.21 135.076 121.512 133.322C117.814 131.569 115.236 129.251 115.757 128.157C116.278 127.063 119.698 127.602 123.396 129.355C127.094 131.109 129.672 133.426 129.151 134.52Z" fill="#3269AB"/>
</g>
<g style="mix-blend-mode:multiply" opacity="0.5">
<path d="M128.968 134.433C128.465 135.492 125.14 134.972 121.538 133.261C117.935 131.551 115.461 129.303 115.939 128.244C116.416 127.185 119.767 127.706 123.369 129.407C126.972 131.109 129.472 133.366 128.968 134.433Z" fill="#3168AA"/>
</g>
<g style="mix-blend-mode:multiply" opacity="0.5">
<path d="M128.786 134.346C128.3 135.379 125.062 134.876 121.564 133.209C118.066 131.543 115.627 129.364 116.121 128.331C116.616 127.298 119.845 127.801 123.344 129.468C126.842 131.135 129.325 133.313 128.786 134.346Z" fill="#2F67AA"/>
</g>
<g style="mix-blend-mode:multiply" opacity="0.5">
<path d="M128.613 134.26C128.135 135.267 124.993 134.772 121.59 133.157C118.187 131.543 115.817 129.416 116.295 128.418C116.772 127.419 119.915 127.905 123.317 129.52C126.72 131.135 129.09 133.253 128.613 134.26Z" fill="#2E66A9"/>
</g>
<g style="mix-blend-mode:multiply" opacity="0.5">
<path d="M128.457 134.173C127.988 135.154 124.941 134.668 121.643 133.105C118.344 131.543 116.044 129.477 116.504 128.504C116.964 127.532 120.019 128.001 123.318 129.572C126.617 131.143 128.891 133.201 128.457 134.173Z" fill="#2D65A8"/>
</g>
<g style="mix-blend-mode:multiply" opacity="0.5">
<path d="M128.249 134.089C128.698 133.145 126.467 131.148 123.266 129.628C120.066 128.108 117.108 127.642 116.66 128.586C116.211 129.53 118.442 131.527 121.643 133.047C124.843 134.566 127.801 135.033 128.249 134.089Z" fill="#2B64A8"/>
</g>
<g style="mix-blend-mode:multiply" opacity="0.5">
<path d="M128.066 133.999C127.632 134.919 124.768 134.468 121.669 133.001C118.57 131.534 116.408 129.589 116.842 128.661C117.276 127.732 120.141 128.201 123.24 129.668C126.339 131.135 128.5 133.088 128.066 133.999Z" fill="#2A63A7"/>
</g>
<g style="mix-blend-mode:multiply" opacity="0.5">
<path d="M127.884 133.912C127.467 134.78 124.689 134.364 121.694 132.94C118.7 131.516 116.599 129.641 117.024 128.756C117.45 127.871 120.219 128.305 123.214 129.728C126.208 131.152 128.309 133.027 127.884 133.912Z" fill="#2962A7"/>
</g>
<g style="mix-blend-mode:multiply" opacity="0.5">
<path d="M127.701 133.834C127.293 134.702 124.619 134.268 121.72 132.888C118.82 131.508 116.798 129.702 117.206 128.843C117.614 127.984 120.288 128.409 123.187 129.789C126.086 131.169 128.109 132.975 127.701 133.834Z" fill="#2761A6"/>
</g>
<g style="mix-blend-mode:multiply" opacity="0.5">
<path d="M127.519 133.747C127.128 134.572 124.541 134.164 121.746 132.836C118.951 131.508 116.989 129.754 117.406 128.93C117.822 128.105 120.383 128.513 123.178 129.841C125.973 131.169 127.918 132.914 127.519 133.747Z" fill="#2660A6"/>
</g>
<g style="mix-blend-mode:multiply" opacity="0.5">
<path d="M127.346 133.704C126.964 134.503 124.464 134.112 121.764 132.836C119.064 131.56 117.189 129.867 117.563 129.069C117.936 128.27 120.445 128.661 123.144 129.937C125.844 131.213 127.719 132.836 127.346 133.704Z" fill="#255FA5"/>
</g>
<g style="mix-blend-mode:multiply" opacity="0.5">
<path d="M127.163 133.574C126.799 134.338 124.394 133.965 121.79 132.706C119.186 131.447 117.38 129.841 117.745 129.077C118.109 128.313 120.514 128.687 123.118 129.945C125.722 131.204 127.528 132.836 127.163 133.574Z" fill="#235EA4"/>
</g>
<g style="mix-blend-mode:multiply" opacity="0.5">
<path d="M126.981 133.487C126.625 134.225 124.316 133.86 121.773 132.68C119.229 131.499 117.536 129.928 117.884 129.207C118.231 128.487 120.549 128.834 123.049 130.015C125.549 131.195 127.328 132.749 126.981 133.487Z" fill="#225DA4"/>
</g>
<g style="mix-blend-mode:multiply" opacity="0.5">
<path d="M126.799 133.4C126.461 134.112 124.247 133.765 121.842 132.619C119.438 131.473 117.771 130.015 118.11 129.277C118.448 128.539 120.662 128.912 123.066 130.05C125.471 131.187 127.138 132.689 126.799 133.4Z" fill="#205CA3"/>
</g>
<g style="mix-blend-mode:multiply" opacity="0.5">
<path d="M126.616 133.313C126.295 133.991 124.168 133.661 121.868 132.567C119.567 131.473 117.97 130.041 118.291 129.364C118.612 128.687 120.739 129.017 123.04 130.11C125.34 131.204 126.937 132.636 126.616 133.313Z" fill="#1F5BA3"/>
</g>
<g style="mix-blend-mode:multiply" opacity="0.5">
<path d="M126.434 133.227C126.13 133.878 124.09 133.557 121.894 132.515C119.698 131.473 118.161 130.093 118.474 129.451C118.786 128.808 120.817 129.112 123.014 130.162C125.21 131.213 126.72 132.576 126.434 133.227Z" fill="#1E5AA2"/>
</g>
<g style="mix-blend-mode:multiply" opacity="0.5">
<path d="M126.252 133.14C125.965 133.765 124.021 133.461 121.911 132.463C119.802 131.465 118.352 130.154 118.647 129.529C118.942 128.904 120.878 129.216 122.988 130.215C125.097 131.213 126.547 132.524 126.252 133.14Z" fill="#1C59A2"/>
</g>
<g style="mix-blend-mode:multiply" opacity="0.5">
<path d="M126.078 133.053C125.791 133.652 123.942 133.357 121.946 132.411C119.949 131.464 118.552 130.206 118.829 129.615C119.107 129.025 120.965 129.32 122.961 130.267C124.958 131.213 126.355 132.463 126.078 133.053Z" fill="#1B58A1"/>
</g>
<g style="mix-blend-mode:multiply" opacity="0.5">
<path d="M125.896 132.975C125.627 133.53 123.873 133.253 121.972 132.358C120.071 131.464 118.752 130.266 119.012 129.702C119.272 129.138 121.035 129.416 122.936 130.319C124.837 131.221 126.156 132.411 125.896 132.975Z" fill="#1957A0"/>
</g>
<g style="mix-blend-mode:multiply" opacity="0.5">
<path d="M125.714 132.888C125.462 133.418 123.795 133.157 121.998 132.298C120.201 131.438 118.943 130.319 119.194 129.789C119.446 129.26 121.113 129.52 122.91 130.371C124.707 131.221 125.965 132.35 125.714 132.888Z" fill="#1856A0"/>
</g>
<g style="mix-blend-mode:multiply" opacity="0.5">
<path d="M125.531 132.836C125.297 133.339 123.725 133.088 122.059 132.28C120.392 131.473 119.168 130.414 119.411 129.911C119.654 129.407 121.217 129.659 122.883 130.466C124.55 131.273 125.774 132.298 125.531 132.836Z" fill="#17559F"/>
</g>
<g style="mix-blend-mode:multiply" opacity="0.5">
<path d="M125.349 132.715C125.123 133.183 123.613 132.958 122.05 132.194C120.488 131.43 119.333 130.458 119.559 129.963C119.784 129.468 121.295 129.72 122.857 130.484C124.42 131.247 125.574 132.237 125.349 132.715Z" fill="#15549F"/>
</g>
<g style="mix-blend-mode:multiply" opacity="0.5">
<path d="M125.166 132.628C124.958 133.07 123.569 132.853 122.076 132.142C120.583 131.43 119.524 130.492 119.741 130.05C119.958 129.607 121.338 129.824 122.831 130.536C124.324 131.247 125.383 132.185 125.166 132.628Z" fill="#14539E"/>
</g>
<g style="mix-blend-mode:multiply" opacity="0.5">
<path d="M124.984 132.541C124.793 132.957 123.5 132.749 122.102 132.089C120.705 131.43 119.724 130.544 119.924 130.136C120.123 129.728 121.408 129.928 122.805 130.588C124.203 131.247 125.184 132.124 124.984 132.541Z" fill="#12529E"/>
</g>
<g style="mix-blend-mode:multiply" opacity="0.5">
<path d="M124.81 132.454C124.628 132.836 123.422 132.654 122.119 132.037C120.817 131.421 119.915 130.605 120.097 130.223C120.279 129.841 121.486 130.024 122.788 130.64C124.09 131.256 124.984 132.072 124.81 132.454Z" fill="#11519D"/>
</g>
<g style="mix-blend-mode:multiply" opacity="0.5">
<path d="M124.628 132.367C124.454 132.723 123.352 132.549 122.145 131.977C120.939 131.404 120.114 130.657 120.279 130.31C120.444 129.963 121.555 130.128 122.762 130.692C123.968 131.256 124.793 132.011 124.628 132.367Z" fill="#104F9C"/>
</g>
<g style="mix-blend-mode:multiply" opacity="0.5">
<path d="M124.447 132.281C124.29 132.61 123.275 132.445 122.172 131.925C121.07 131.404 120.306 130.718 120.436 130.388C120.566 130.058 121.608 130.223 122.71 130.753C123.813 131.282 124.603 131.968 124.447 132.281Z" fill="#0E4E9C"/>
</g>
<g style="mix-blend-mode:multiply" opacity="0.5">
<path d="M124.263 132.194C124.124 132.489 123.196 132.35 122.197 131.872C121.199 131.395 120.505 130.77 120.643 130.475C120.782 130.18 121.711 130.327 122.709 130.805C123.708 131.282 124.402 131.898 124.263 132.194Z" fill="#0D4D9B"/>
</g>
<g style="mix-blend-mode:multiply" opacity="0.5">
<path d="M124.116 132.115C123.995 132.376 123.161 132.246 122.258 131.82C121.356 131.395 120.731 130.831 120.861 130.562C120.991 130.293 121.816 130.431 122.719 130.857C123.621 131.282 124.212 131.846 124.116 132.115Z" fill="#0B4C9B"/>
</g>
<g style="mix-blend-mode:multiply" opacity="0.5">
<path d="M123.899 132.029C123.786 132.263 123.031 132.142 122.25 131.768C121.469 131.395 120.896 130.9 121.009 130.649C121.121 130.397 121.877 130.527 122.658 130.909C123.439 131.291 124.012 131.786 123.899 132.029Z" fill="#0A4B9A"/>
</g>
<g style="mix-blend-mode:multiply" opacity="0.5">
<path d="M123.717 131.968C123.622 132.176 122.979 132.072 122.276 131.742C121.573 131.412 121.087 130.97 121.191 130.761C121.295 130.553 121.929 130.657 122.632 130.987C123.335 131.317 123.821 131.734 123.717 131.968Z" fill="#094A9A"/>
</g>
<g style="mix-blend-mode:multiply" opacity="0.5">
<path d="M123.543 131.855C123.456 132.029 122.901 131.942 122.302 131.655C121.703 131.369 121.286 130.996 121.364 130.787C121.442 130.579 122.007 130.701 122.605 130.978C123.204 131.256 123.621 131.673 123.543 131.855Z" fill="#074999"/>
</g>
<g style="mix-blend-mode:multiply" opacity="0.5">
<path d="M123.361 131.768C123.292 131.916 122.823 131.846 122.328 131.603C121.833 131.36 121.46 131.056 121.547 130.909C121.634 130.761 122.085 130.831 122.58 131.074C123.075 131.317 123.43 131.621 123.361 131.768Z" fill="#064898"/>
</g>
<g style="mix-blend-mode:multiply" opacity="0.5">
<path d="M123.178 131.682C123.118 131.803 122.753 131.742 122.354 131.551C121.954 131.36 121.677 131.109 121.729 130.996C121.781 130.883 122.154 130.935 122.553 131.126C122.953 131.317 123.248 131.56 123.178 131.682Z" fill="#044798"/>
</g>
<g style="mix-blend-mode:multiply" opacity="0.5">
<path d="M122.997 131.595C122.953 131.682 122.675 131.638 122.38 131.499C122.085 131.36 121.868 131.169 121.912 131.083C121.955 130.996 122.233 131.03 122.528 131.178C122.823 131.326 123.04 131.508 122.997 131.595Z" fill="#034697"/>
</g>
<g style="mix-blend-mode:multiply" opacity="0.5">
<path d="M122.814 131.508C122.814 131.569 122.605 131.508 122.406 131.447C122.206 131.386 122.067 131.221 122.093 131.169C122.119 131.117 122.302 131.169 122.501 131.23C122.701 131.291 122.84 131.447 122.814 131.508Z" fill="#014597"/>
</g>
<g style="mix-blend-mode:multiply" opacity="0.5">
<path d="M122.632 131.421C122.632 131.421 122.528 131.421 122.432 131.421C122.337 131.421 122.259 131.308 122.276 131.273C122.293 131.239 122.38 131.273 122.476 131.273C122.571 131.273 122.649 131.395 122.632 131.421Z" fill="#004496"/>
</g>
</g>
</g>
<path opacity="0.5" d="M94.0121 70.2225C91.7118 68.8944 87.6926 69.068 85.0363 70.5958L76.9807 75.2573L119.42 99.754C120.299 100.154 121.26 100.341 122.225 100.302C123.19 100.263 124.132 99.998 124.976 99.5283L134.872 93.8165L94.0121 70.2225Z" fill="#053054"/>
<path d="M218.241 35.3439L217.208 36.212H217.147L159.855 3.1214C158.849 2.66588 157.75 2.45217 156.647 2.49739C155.543 2.54261 154.466 2.8455 153.501 3.38182L59.88 57.3146C59.6759 57.4366 59.4789 57.5699 59.2897 57.7139L58.3262 57.0021V59.3546C58.3383 59.7004 58.4473 60.0358 58.6406 60.3228C58.834 60.6098 59.104 60.8367 59.4199 60.9778L116.712 94.0771C117.719 94.5313 118.818 94.7435 119.921 94.6968C121.025 94.6501 122.102 94.3457 123.066 93.808L216.687 39.7971C217.105 39.617 217.468 39.3308 217.74 38.9668C218.013 38.6028 218.186 38.1738 218.241 37.7224V35.3439Z" fill="white"/>
<path d="M216.687 37.4185L123.075 91.4641C122.111 92.0018 121.034 92.3062 119.93 92.3529C118.827 92.3997 117.728 92.1874 116.721 91.7332L59.4289 58.6339C57.797 57.6964 58.0053 56.0298 59.8803 54.9707L153.475 0.890369C154.44 0.354048 155.518 0.0511555 156.621 0.00593469C157.725 -0.0392861 158.823 0.17442 159.829 0.62995L217.121 33.7205C218.736 34.6928 218.571 36.3334 216.687 37.4185Z" fill="#905CFF"/>
<path d="M142.815 26.8194L134.768 22.1666L136.739 21.0294C137.079 20.8295 137.436 20.661 137.807 20.526C138.154 20.404 138.516 20.3253 138.883 20.2916C139.258 20.2563 139.637 20.2856 140.003 20.3784C140.406 20.4811 140.792 20.6419 141.149 20.8558C142.138 21.4287 142.303 21.9756 141.635 22.5051C142.167 22.2846 142.745 22.1953 143.319 22.2447C143.933 22.3156 144.525 22.5168 145.055 22.835C145.819 23.269 146.209 23.7031 146.218 24.1718C146.227 24.6406 145.871 25.0399 145.133 25.4826L142.815 26.8194ZM139.517 23.2169L139.968 22.9565C140.402 22.7048 140.602 22.4791 140.584 22.2794C140.567 22.0798 140.333 21.8541 139.89 21.6024C139.694 21.4862 139.484 21.3958 139.265 21.3332C139.071 21.2898 138.869 21.2898 138.675 21.3332C138.48 21.3586 138.29 21.4112 138.11 21.4895C137.89 21.5911 137.676 21.7041 137.468 21.828L137.26 21.9409L139.517 23.2169ZM143.215 25.3697L143.753 25.0659C144.195 24.8142 144.386 24.5798 144.36 24.3628C144.334 24.1458 144.065 23.9027 143.597 23.6336C143.194 23.3781 142.735 23.226 142.26 23.1909C141.807 23.1875 141.362 23.3108 140.975 23.5468L140.515 23.8159L143.215 25.3697Z" fill="white"/>
<path d="M147.911 23.8767L141.478 18.2516L143.006 17.3835L152.694 21.0902L151.331 21.8801L149.135 21.0121L147.737 21.8193L149.291 23.078L147.911 23.8767ZM146.956 21.1683L148.032 20.5433L144.187 18.9461L146.956 21.1683Z" fill="white"/>
<path d="M153.501 20.6475L145.446 16.0034L146.461 15.4218L152.989 16.9149L148.432 14.3107L149.647 13.6162L157.694 18.2517L156.739 18.8072L149.951 17.1926L154.743 19.9618L153.501 20.6475Z" fill="white"/>
<path d="M158.9 17.5313L150.845 12.8871L152.312 12.0191L155.784 14.0416L153.874 11.1076L155.272 10.3003L157.338 13.2691L163.484 14.8576L162.025 15.7257L156.817 14.3368L157.103 14.7795L160.367 16.6632L158.9 17.5313Z" fill="white"/>
<path d="M134.065 71.6115L116.122 81.9675L114.047 80.7696L131.99 70.4136L134.065 71.6115Z" fill="white"/>
<path d="M156.123 58.8771L138.18 69.2331L136.105 68.0352L154.048 57.6792L156.123 58.8771Z" fill="white"/>
<path d="M178.18 46.1425L160.237 56.4985L158.162 55.3006L176.105 44.9446L178.18 46.1425Z" fill="white"/>
<path d="M200.237 33.4081L182.294 43.7641L180.22 42.5662L198.163 32.2102L200.237 33.4081Z" fill="white"/>
<path d="M221.114 106.299L189.777 88.0699C183.57 84.4848 177.72 83.9205 173.284 86.464C168.848 89.0074 166.426 94.372 166.426 101.542V103.834C166.652 103.99 166.886 104.138 167.12 104.277V101.542C167.12 94.5977 169.43 89.4935 173.631 87.0629C177.832 84.6323 183.44 85.2139 189.421 88.6688L220.758 106.898C220.796 106.923 220.839 106.939 220.884 106.946C220.929 106.953 220.975 106.951 221.019 106.94C221.063 106.928 221.104 106.908 221.14 106.88C221.176 106.852 221.205 106.817 221.227 106.777C221.275 106.698 221.29 106.604 221.269 106.515C221.248 106.425 221.192 106.348 221.114 106.299Z" fill="white"/>
<path d="M123.397 84.5717V65.2833C123.397 51.1512 113.44 33.8941 101.2 26.8281C95.2019 23.3558 89.5508 22.8176 85.2713 25.2916C80.9917 27.7656 78.6479 32.9219 78.6479 39.849V44.771L79.3424 45.4654V39.849C79.3424 33.1823 81.5733 28.2257 85.6185 25.8906C89.6637 23.5555 95.0804 24.0937 100.853 27.4271C112.902 34.3716 122.702 51.3682 122.702 65.2833V84.5717C122.702 96.2819 129.603 110.154 138.944 118.496V117.567C129.968 109.32 123.397 95.9173 123.397 84.5717Z" fill="white"/>
<path d="M139.012 118.201C139.012 118.201 131.035 110.075 127.936 103.374C124.837 96.6726 123.214 90.4833 123.162 84.9537C123.109 79.4241 123.057 83.2176 123.057 83.2176C123.057 83.2176 123.396 63.5125 122.563 60.4049C121.729 57.2972 119.776 40.6911 103.526 28.7726C87.2758 16.8541 79.1507 29.7101 79.2202 36.4289C79.2896 43.1478 79.2202 47.4534 79.2202 47.4534C79.2202 47.4534 88.1265 54.6583 91.4859 64.9535C94.8453 75.2487 95.1752 73.4605 95.2273 83.7037C95.2793 93.9468 95.3314 94.5805 95.3314 94.5805C95.3314 94.5805 94.5849 103.704 96.8505 110.77C99.1162 117.836 103.205 125.657 108.049 130.735C112.892 135.814 120.045 141.925 126.66 141.326C133.274 140.727 137.719 138.288 138.986 127.827L139.012 118.201Z" fill="white"/>
<path d="M85.2711 25.2917L57.875 41.0818L79.2467 47.4447L85.2711 25.2917Z" fill="white"/>
<path d="M166.435 103.825V106.994C164.916 105.891 157.754 100.995 150.94 101.238C143.266 101.508 140.697 108.53 140.697 108.53C140.697 108.53 138.882 113.739 139.013 116.221C139.013 116.647 139.056 117.15 139.073 117.68L138.943 117.567V118.496L139.108 118.626C139.169 120.996 139.186 123.591 139.186 123.591C139.222 126.188 139.022 128.783 138.587 131.343C137.398 136.872 132.719 140.024 132.354 140.501L160.471 124.312H160.549L160.662 124.233L160.81 124.155C164.881 121.647 167.12 116.595 167.12 109.867V104.32C166.895 104.129 166.652 103.982 166.435 103.825Z" fill="url(#paint3_linear)"/>
<path d="M144.525 103.113L173.293 86.4553C176.715 84.9093 180.608 84.7659 184.135 86.056C190.064 88.2261 221.149 106.889 221.149 106.889L193.371 122.888C193.371 122.888 161.105 102.922 157.312 101.898C149.551 99.8495 144.525 103.113 144.525 103.113Z" fill="white"/>
<path d="M78.6474 46.8977C74.705 43.2634 69.7929 40.8511 64.5066 39.9532C55.7652 38.6685 52.1454 48.8943 52.1454 48.8943C51.6209 51.6735 51.3046 54.4881 51.1992 57.3145C51.1992 60.4569 51.4596 71.8719 51.4596 71.8719L79.1509 55.9429C79.2086 55.9161 79.2574 55.8732 79.2913 55.8193C79.3252 55.7654 79.3427 55.7028 79.3418 55.6391V47.5314C79.1075 47.297 78.8818 47.1581 78.6474 46.8977Z" fill="url(#paint4_linear)"/>
<path d="M126.956 141.751C123.434 141.623 120.007 140.576 117.016 138.713C104.863 131.699 94.9761 114.572 94.9761 100.518V81.2556C94.9761 67.3666 85.1757 50.3612 73.1269 43.3993C67.3543 40.066 61.9463 39.5191 57.8924 41.8542C53.8386 44.1893 51.6163 49.1546 51.6163 55.8213V71.6027C51.6163 71.6948 51.5797 71.7831 51.5146 71.8483C51.4495 71.9134 51.3612 71.95 51.2691 71.95C51.177 71.95 51.0887 71.9134 51.0236 71.8483C50.9585 71.7831 50.9219 71.6948 50.9219 71.6027V55.8213C50.9219 48.8768 53.2743 43.7292 57.5452 41.2639C61.8161 38.7986 67.4758 39.3455 73.4655 42.8004C85.7139 49.8664 95.6706 67.1062 95.6706 81.2556V100.544C95.6706 114.355 105.402 131.213 117.372 138.114C123.101 141.421 128.466 141.968 132.485 139.65C136.504 137.333 138.718 132.402 138.718 125.761V117.48C138.718 110.31 141.157 104.962 145.576 102.402C149.994 99.8408 155.853 100.422 162.069 104.008L193.397 122.237C193.477 122.284 193.535 122.36 193.559 122.449C193.583 122.538 193.572 122.633 193.527 122.714C193.505 122.753 193.475 122.788 193.439 122.815C193.403 122.842 193.362 122.862 193.319 122.874C193.275 122.885 193.229 122.888 193.185 122.881C193.14 122.875 193.097 122.859 193.059 122.836L161.722 104.607C155.741 101.134 150.133 100.579 145.931 103.001C141.73 105.422 139.421 110.57 139.421 117.48V125.761C139.421 132.636 137.086 137.767 132.841 140.223C131.05 141.248 129.018 141.775 126.956 141.751Z" fill="url(#paint5_linear)"/>
<path d="M107.216 88.9207V91.412L103.804 93.3738V90.8825L107.216 88.9207Z" fill="#DDE1ED"/>
<path d="M113.423 85.3357V87.827L110.011 89.7975V87.3062L113.423 85.3357Z" fill="#DDE1ED"/>
<path d="M117.138 78.5212V81.0213L103.969 88.6255V86.1255L117.138 78.5212Z" fill="#DDE1ED"/>
<path d="M110.567 70.6393V68.1479L117.138 64.3545V66.8458L110.567 70.6393Z" fill="#DDE1ED"/>
<path d="M103.804 74.5369V72.0456L107.216 70.0837V72.5751L103.804 74.5369Z" fill="#DDE1ED"/>
<path d="M103.804 79.1983V76.7069L110.298 72.9656V75.4569L103.804 79.1983Z" fill="#DDE1ED"/>
<path d="M112.919 73.9466V71.4466L117.138 69.0073V71.4987L112.919 73.9466Z" fill="#DDE1ED"/>
<path d="M110.567 99.6675V97.1761L117.138 93.374V95.874L110.567 99.6675Z" fill="#DDE1ED"/>
<path d="M103.804 103.565V101.074L107.216 99.1118V101.603L103.804 103.565Z" fill="#DDE1ED"/>
<path d="M103.804 108.226V105.735L110.298 101.985V104.485L103.804 108.226Z" fill="#DDE1ED"/>
<path d="M112.919 102.966V100.475L117.138 98.0354V100.527L112.919 102.966Z" fill="#DDE1ED"/>
<path d="M180.715 107.037L178.553 105.787L181.461 104.112L183.623 105.353L180.715 107.037Z" fill="#DDE1ED"/>
<path d="M184.882 99.9711L182.729 98.7211L188.267 95.5266L190.42 96.7679L184.882 99.9711Z" fill="#DDE1ED"/>
<path d="M172.546 101.994L170.393 100.752L183.857 92.9746L186.01 94.2246L172.546 101.994Z" fill="#DDE1ED"/>
<path d="M185.68 104.173L183.518 102.923L194.751 96.4382L196.913 97.6882L185.68 104.173Z" fill="#DDE1ED"/>
<path d="M176.964 104.546L174.803 103.296L180.341 100.101L182.503 101.343L176.964 104.546Z" fill="#DDE1ED"/>
<path d="M42.2847 111.117L41.1302 111.785L38.3784 110.206L39.5416 109.537L42.2847 111.117Z" fill="white"/>
<path d="M44.42 109.884L43.2654 110.553L40.5137 108.973L41.6769 108.304L44.42 109.884Z" fill="white"/>
<path d="M46.5552 108.652L45.4007 109.32L42.6489 107.74L43.8121 107.072L46.5552 108.652Z" fill="white"/>
<path d="M48.691 107.419L47.5364 108.088L44.7847 106.508L45.9479 105.839L48.691 107.419Z" fill="white"/>
<defs>
<radialGradient id="paint0_radial" cx="0" cy="0" r="1" gradientUnits="userSpaceOnUse" gradientTransform="translate(129.16 -6.6098) scale(200.392)">
<stop stop-color="#6A37D7"/>
<stop offset="1" stop-color="#49FFFF"/>
</radialGradient>
<linearGradient id="paint1_linear" x1="37.0934" y1="88.0005" x2="209.005" y2="178.574" gradientUnits="userSpaceOnUse">
<stop stop-color="#E0F3FF"/>
<stop offset="0.31" stop-color="#DBC5FF"/>
<stop offset="0.36" stop-color="#CAEBFF"/>
<stop offset="0.6" stop-color="#F7EAFF"/>
<stop offset="0.8" stop-color="#B1D3F0"/>
</linearGradient>
<linearGradient id="paint2_linear" x1="40.9754" y1="142.132" x2="172.339" y2="99.3648" gradientUnits="userSpaceOnUse">
<stop stop-color="#4182FF"/>
<stop offset="1" stop-color="#FF7BF2"/>
</linearGradient>
<linearGradient id="paint3_linear" x1="6644.01" y1="5028.2" x2="5321.24" y2="5658.35" gradientUnits="userSpaceOnUse">
<stop stop-color="#59BDEF"/>
<stop offset="1" stop-color="#7BDAFF"/>
</linearGradient>
<linearGradient id="paint4_linear" x1="2185.82" y1="1985.04" x2="987.631" y2="2338.92" gradientUnits="userSpaceOnUse">
<stop stop-color="#59BDEF"/>
<stop offset="1" stop-color="#7BDAFF"/>
</linearGradient>
<linearGradient id="paint5_linear" x1="8421.59" y1="10700.6" x2="31860.3" y2="10700.6" gradientUnits="userSpaceOnUse">
<stop stop-color="#59BDEF"/>
<stop offset="1" stop-color="#7BDAFF"/>
</linearGradient>
</defs>
</svg>
