<svg width="162" height="162" viewBox="0 0 162 162" fill="none" xmlns="http://www.w3.org/2000/svg">
<g filter="url(#filter0_d)">
<circle cx="81" cy="76" r="71" fill="white"/>
</g>
<path d="M72.0443 55.2238C72.0443 56.0183 71.9903 56.8008 71.8851 57.5665C71.7308 58.7053 71.4637 59.8082 71.0963 60.865C68.7627 67.5818 62.3769 72.4032 54.8649 72.4032C45.377 72.4032 37.6855 64.7117 37.6855 55.2238C37.6855 53.569 37.9198 51.9689 38.3566 50.4543C38.4422 50.1562 38.5361 49.8618 38.6371 49.5707C40.9749 42.8603 47.3572 38.0444 54.8649 38.0444C64.3528 38.0444 72.0443 45.7359 72.0443 55.2238Z" fill="#FBFBFF"/>
<path d="M48.717 62.6187H51.6162L53.429 51.3313H50.5308L48.717 62.6187Z" fill="#191B73"/>
<path d="M49.3619 51.3326L44.8034 62.6079H41.7357L39.4981 54.2608C39.2674 53.3997 38.6707 52.6838 37.8657 52.3003C37.8061 52.2715 37.7458 52.2435 37.6855 52.2168C37.7711 51.9188 37.8651 51.6244 37.9661 51.3333H40.3024C41.2617 51.3459 41.9671 51.9265 42.1887 52.7869L43.1676 57.5733C43.1641 57.5635 43.1592 57.553 43.1556 57.5432L43.4537 59.0003L46.2942 51.3313V51.3327L49.3619 51.3326Z" fill="#191B73"/>
<path d="M69.5613 51.3662H67.3182C66.6268 51.3662 66.1016 51.5653 65.8021 52.2742L61.4961 62.619H64.5386L65.3766 60.3794H68.7809L69.2156 62.6274H70.4252C70.7926 61.5707 71.0598 60.4677 71.2141 59.329L69.5613 51.3662ZM66.22 58.1188C66.2803 58.1188 67.3882 54.4634 67.3882 54.4634L68.271 58.1188C68.2711 58.1188 66.7929 58.1188 66.22 58.1188Z" fill="#191B73"/>
<path d="M59.2754 55.929C58.2623 55.4287 57.6413 55.091 57.6413 54.5794C57.6537 54.1141 58.1664 53.6374 59.3117 53.6374C60.2536 53.6138 60.9459 53.8351 61.4711 54.0554L61.7342 54.1728L62.1283 51.8112C61.5556 51.5898 60.6476 51.3459 59.5262 51.3459C56.6631 51.3459 54.6471 52.8345 54.6346 54.9635C54.611 56.5345 56.0779 57.4063 57.1758 57.9293C58.2973 58.4659 58.6791 58.8136 58.6791 59.2903C58.6667 60.0221 57.7722 60.3598 56.9376 60.3598C55.7812 60.3598 55.16 60.1859 54.2169 59.7781L53.8351 59.6043L53.4297 62.0585C54.1108 62.3612 55.3632 62.6276 56.6632 62.6413C59.7058 62.6413 61.6857 61.1753 61.7106 58.9064C61.7205 57.6616 60.9469 56.7083 59.2754 55.929Z" fill="#191B73"/>
<path d="M72.0443 97.6696C72.0443 101.313 70.9105 104.691 68.9752 107.472C68.5419 108.094 68.0678 108.688 67.5573 109.246C64.416 112.689 59.8925 114.849 54.8649 114.849C49.4194 114.849 44.5657 112.316 41.418 108.362C41.1873 108.073 40.9657 107.775 40.754 107.471C38.8194 104.691 37.6855 101.312 37.6855 97.6696C37.6855 88.1817 45.377 80.4902 54.8649 80.4902C64.3528 80.4902 72.0443 88.1817 72.0443 97.6696Z" fill="#FBFBFF"/>
<path d="M50.6365 101.634C53.9937 101.634 56.7153 98.9127 56.7153 95.5554C56.7153 92.1982 53.9937 89.4766 50.6365 89.4766C47.2792 89.4766 44.5576 92.1982 44.5576 95.5554C44.5576 98.9127 47.2792 101.634 50.6365 101.634Z" fill="#EE0005"/>
<path d="M58.0366 101.634C61.3939 101.634 64.1155 98.9127 64.1155 95.5554C64.1155 92.1982 61.3939 89.4766 58.0366 89.4766C54.6794 89.4766 51.9578 92.1982 51.9578 95.5554C51.9578 98.9127 54.6794 101.634 58.0366 101.634Z" fill="#F9A000"/>
<path d="M51.9578 95.2911C51.9578 97.2187 52.8873 98.9364 54.3364 100.048C55.7856 98.9363 56.7151 97.2187 56.7151 95.2911C56.7151 93.3634 55.7856 91.6458 54.3364 90.5337C52.8873 91.6458 51.9578 93.3634 51.9578 95.2911Z" fill="#FF6300"/>
<path d="M44.004 106.165C43.6372 106.165 43.2705 106.367 43.0496 106.797C42.9038 106.424 42.6002 106.165 42.2208 106.165C41.7973 106.165 41.5189 106.399 41.3801 106.646V106.418C41.3801 106.292 41.2412 106.203 41.0828 106.203C40.8872 106.203 40.7539 106.292 40.7539 106.418V107.471C40.9657 107.775 41.1872 108.073 41.4179 108.362V107.411C41.4179 106.981 41.7089 106.753 42.0063 106.753C42.3162 106.753 42.5938 107.012 42.5938 107.404V108.986C42.5938 109.137 42.7713 109.2 42.9227 109.2C43.0939 109.2 43.2579 109.137 43.2579 108.986V107.398C43.2579 106.987 43.5552 106.747 43.8526 106.747C44.1435 106.747 44.4409 106.975 44.4409 107.411V108.979C44.4409 109.087 44.5987 109.2 44.7698 109.2C44.9528 109.2 45.1042 109.086 45.1042 108.979V107.411C45.1041 106.614 44.5733 106.165 44.004 106.165Z" fill="#171614"/>
<path d="M46.7296 106.165C46.2998 106.165 45.7745 106.342 45.7745 106.57C45.7745 106.721 45.8573 106.905 46.015 106.905C46.1413 106.905 46.2555 106.715 46.7169 106.715C47.1783 106.715 47.3431 107.075 47.3431 107.398V107.512H47.0647C46.1861 107.512 45.5852 107.702 45.5852 108.416C45.5852 108.986 45.9646 109.251 46.4259 109.251C46.8557 109.251 47.1594 109.017 47.381 108.758V108.979C47.381 109.099 47.5135 109.2 47.6846 109.2C47.8676 109.2 48.0072 109.099 48.0072 108.979V107.392C48.0072 106.759 47.6593 106.165 46.7296 106.165ZM47.3431 108.113C47.3431 108.416 46.9827 108.745 46.6665 108.745C46.4323 108.745 46.2556 108.619 46.2556 108.334C46.2556 107.93 46.7043 107.878 47.1847 107.878H47.3431V108.113Z" fill="#171614"/>
<path d="M49.1703 107.044C49.1703 106.886 49.3091 106.677 49.6822 106.677C50.037 106.677 50.2326 106.861 50.3651 106.861C50.5236 106.861 50.6183 106.633 50.6183 106.538C50.6183 106.336 50.1442 106.165 49.6696 106.165C48.873 106.165 48.5884 106.639 48.5884 107.075C48.5884 108.125 50.1128 107.733 50.1128 108.397C50.1128 108.568 49.9922 108.739 49.575 108.739C49.0315 108.739 48.8983 108.448 48.7342 108.448C48.601 108.448 48.5063 108.631 48.5063 108.745C48.5063 108.986 48.9684 109.251 49.5939 109.251C50.3084 109.251 50.7067 108.909 50.7067 108.372C50.7067 107.234 49.1703 107.601 49.1703 107.044Z" fill="#171614"/>
<path d="M52.56 108.631H52.3385C52.0096 108.631 51.896 108.517 51.896 108.213V106.696H52.6674C52.781 106.696 52.8511 106.576 52.8511 106.449C52.8511 106.323 52.781 106.203 52.6674 106.203H51.896V105.045C51.896 104.919 51.7249 104.831 51.5608 104.831C51.4024 104.831 51.2319 104.919 51.2319 105.045V108.213C51.2319 108.903 51.6176 109.2 52.3384 109.2H52.56C52.7493 109.2 52.844 109.061 52.844 108.915C52.844 108.77 52.7494 108.631 52.56 108.631Z" fill="#171614"/>
<path d="M55.4622 108.473C55.2911 108.473 55.1396 108.713 54.6909 108.713C54.2036 108.713 53.8684 108.448 53.8684 108.024V107.878H55.2027C55.4874 107.878 55.7784 107.859 55.7784 107.335C55.7784 106.646 55.1964 106.165 54.5198 106.165C53.7926 106.165 53.2043 106.728 53.2043 107.392V107.993C53.2043 108.745 53.8116 109.251 54.672 109.251C55.3101 109.251 55.7217 108.96 55.7217 108.77C55.7217 108.657 55.62 108.473 55.4622 108.473ZM53.8684 107.265C53.8684 106.918 54.1657 106.671 54.5135 106.671C54.8739 106.671 55.1523 106.943 55.1523 107.278C55.1523 107.43 55.1018 107.467 54.9181 107.467H53.8684V107.265Z" fill="#171614"/>
<path d="M57.9474 106.165H57.7447C57.3717 106.165 57.0751 106.43 56.9419 106.696V106.418C56.9419 106.292 56.803 106.203 56.6383 106.203C56.4489 106.203 56.3157 106.292 56.3157 106.418V108.979C56.3157 109.087 56.4489 109.2 56.6383 109.2C56.8283 109.2 56.9798 109.086 56.9798 108.979V107.683C56.9798 107.107 57.3591 106.753 57.7448 106.753H57.9474C58.08 106.753 58.2006 106.62 58.2006 106.456C58.2005 106.298 58.0799 106.165 57.9474 106.165Z" fill="#171614"/>
<path d="M60.521 108.454C60.3759 108.454 60.2749 108.663 59.857 108.663C59.3703 108.663 59.1551 108.41 59.1551 107.993V107.423C59.1551 107.006 59.3767 106.753 59.8507 106.753C60.256 106.753 60.3696 106.949 60.5021 106.949C60.6605 106.949 60.7678 106.753 60.7678 106.627C60.7678 106.405 60.3759 106.165 59.8002 106.165C58.8963 106.165 58.4917 106.715 58.4917 107.423V107.993C58.4917 108.713 58.8963 109.251 59.8065 109.251C60.3885 109.251 60.8057 108.992 60.8057 108.77C60.8057 108.638 60.6984 108.454 60.521 108.454Z" fill="#171614"/>
<path d="M62.2408 106.165C61.811 106.165 61.2857 106.342 61.2857 106.57C61.2857 106.721 61.3685 106.905 61.5263 106.905C61.6532 106.905 61.7668 106.715 62.2281 106.715C62.6895 106.715 62.8543 107.075 62.8543 107.398V107.512H62.5759C61.6973 107.512 61.0964 107.702 61.0964 108.416C61.0964 108.986 61.4758 109.251 61.9372 109.251C62.3677 109.251 62.6706 109.017 62.8922 108.758V108.979C62.8922 109.099 63.0248 109.2 63.1958 109.2C63.3788 109.2 63.5184 109.099 63.5184 108.979V107.392C63.5184 106.759 63.1706 106.165 62.2408 106.165ZM62.8544 108.113C62.8544 108.416 62.4939 108.745 62.1777 108.745C61.9435 108.745 61.7668 108.619 61.7668 108.334C61.7668 107.93 62.2156 107.878 62.6959 107.878H62.8544V108.113Z" fill="#171614"/>
<path d="M65.8255 106.165H65.6236C65.2506 106.165 64.9533 106.43 64.8208 106.696V106.418C64.8208 106.292 64.6812 106.203 64.5172 106.203C64.3271 106.203 64.1946 106.292 64.1946 106.418V108.979C64.1946 109.087 64.3271 109.2 64.5172 109.2C64.7065 109.2 64.8587 109.086 64.8587 108.979V107.683C64.8587 107.107 65.238 106.753 65.6237 106.753H65.8256C65.9588 106.753 66.0787 106.62 66.0787 106.456C66.0787 106.298 65.9588 106.165 65.8255 106.165Z" fill="#171614"/>
<path d="M68.6459 104.42C68.4566 104.42 68.3107 104.508 68.3107 104.634V106.646C68.1719 106.399 67.8872 106.165 67.4889 106.165C66.8691 106.165 66.3572 106.728 66.3572 107.41V107.992C66.3572 108.65 66.8754 109.25 67.47 109.25C67.4995 109.25 67.5282 109.249 67.557 109.246C68.0675 108.687 68.5414 108.094 68.9748 107.471V104.635C68.9748 104.508 68.836 104.42 68.6459 104.42ZM68.3108 108.138C68.3108 108.29 68.0268 108.663 67.6594 108.663C67.3116 108.663 67.0213 108.334 67.0213 107.993V107.411C67.0213 107.082 67.3116 106.753 67.6664 106.753C67.9819 106.753 68.3108 107 68.3108 107.411V108.138Z" fill="#171614"/>
<path d="M104.258 114.849C113.745 114.849 121.437 107.158 121.437 97.6696C121.437 88.1817 113.745 80.4902 104.258 80.4902C94.7696 80.4902 87.0781 88.1817 87.0781 97.6696C87.0781 107.158 94.7696 114.849 104.258 114.849Z" fill="#FBFBFF"/>
<path d="M97.3659 99.9399C96.7152 101.428 95.7756 102.696 94.8486 103.424C93.1811 104.735 92.4666 103.067 90.9183 103.067C89.8455 103.067 89.173 103.867 88.3064 103.923C87.514 101.947 87.0779 99.7899 87.0779 97.5312C87.0779 95.3463 87.486 93.2567 88.23 91.334C89.4382 91.4505 89.8035 92.0689 90.9183 92.0689C92.149 92.0689 92.4666 91.3145 94.0149 91.3145C95.0197 91.3145 96.2615 91.9322 97.1345 93.0163C95.8296 93.599 94.9195 94.9088 94.9195 96.4312C94.9194 98.0417 95.9382 99.4147 97.3659 99.9399Z" fill="#353535"/>
<path d="M90.3894 91.1741C90.3894 91.274 90.3946 91.3726 90.4026 91.4705C92.3204 91.407 93.856 89.8335 93.856 87.9001C93.856 87.8002 93.8508 87.7016 93.8429 87.6038C91.925 87.6671 90.3894 89.2408 90.3894 91.1741Z" fill="#353535"/>
<path d="M99.432 91.9337C99.432 91.624 99.7072 91.3486 100.137 91.3486H103.493C105.609 91.3486 107.261 92.3638 107.261 95.1341V95.2718C107.261 98.0249 105.558 99.0745 103.389 99.0745H101.256V103.325C101.256 103.72 100.808 103.927 100.344 103.927C99.8965 103.927 99.4319 103.72 99.4319 103.325L99.432 91.9337ZM101.256 92.966V97.6291H103.39C104.663 97.6291 105.437 96.9064 105.437 95.3922V95.1857C105.437 93.6715 104.663 92.9661 103.39 92.9661L101.256 92.966Z" fill="#353535"/>
<path d="M113.747 99.0056V103.324C113.747 103.651 113.368 103.927 112.869 103.927C112.405 103.927 112.043 103.651 112.043 103.324V102.722C111.441 103.428 110.615 104.064 109.445 104.064C108.189 104.064 107.156 103.342 107.156 101.793C107.156 99.8487 108.791 99.3325 111.183 99.3325H111.94V99.0228C111.94 98.1452 111.493 97.1644 110.237 97.1644C108.98 97.1644 108.671 97.6807 108.327 97.6807C107.896 97.6807 107.673 97.1817 107.673 96.7687C107.673 96.1492 109.101 95.6675 110.271 95.6675C112.8 95.6675 113.747 97.285 113.747 99.0056ZM111.94 100.331H111.51C110.202 100.331 108.98 100.468 108.98 101.569C108.98 102.344 109.462 102.688 110.099 102.688C110.959 102.688 111.94 101.793 111.94 100.967V100.331Z" fill="#353535"/>
<path d="M114.02 96.7514C113.969 96.6826 113.951 96.6137 113.951 96.5105C113.951 96.0459 114.657 95.6501 115.139 95.6501C115.38 95.6501 115.603 95.7534 115.689 95.9771L117.857 101.569L119.716 95.9771C119.819 95.7534 120.025 95.6501 120.232 95.6501C120.662 95.6501 121.436 96.0287 121.436 96.545C121.436 96.6137 121.436 96.6998 121.402 96.7514L118.855 103.479C118.081 105.51 117.238 107.798 114.795 107.798C114.33 107.798 113.951 107.678 113.951 107.024C113.951 106.611 114.089 106.25 114.45 106.25C115.328 106.25 116.67 105.372 116.911 103.428L114.02 96.7514Z" fill="#353535"/>
<path d="M123.551 56.2805C123.551 66.3523 115.386 74.5171 105.315 74.5171C101.339 74.5171 97.6613 73.245 94.6645 71.0856C94.2514 70.7886 93.8517 70.4738 93.4661 70.1433C89.5561 66.799 87.0781 61.8289 87.0781 56.2805C87.0781 46.2087 95.2429 38.0439 105.315 38.0439C115.386 38.0439 123.551 46.2087 123.551 56.2805Z" fill="#FBFBFF"/>
<path d="M101.388 51.4119L100.897 53.2448L99.1024 53.2827C98.5662 52.288 98.262 51.15 98.262 49.9406C98.262 48.7711 98.5464 47.6683 99.0505 46.6973H99.0509L100.648 46.9902L101.348 48.5782C101.202 49.0052 101.122 49.4636 101.122 49.9406C101.122 50.4583 101.216 50.9543 101.388 51.4119Z" fill="#FBBB00"/>
<path d="M112.244 48.6233C112.325 49.0499 112.367 49.4905 112.367 49.9408C112.367 50.4457 112.314 50.9382 112.213 51.4133C111.869 53.0299 110.972 54.4415 109.73 55.4405L109.729 55.4401L107.717 55.3374L107.432 53.5596C108.257 53.076 108.901 52.3192 109.241 51.4133H105.469V48.6233H109.296H112.244Z" fill="#518EF8"/>
<path d="M109.729 55.4399L109.729 55.4403C108.521 56.4117 106.985 56.9929 105.314 56.9929C102.629 56.9929 100.293 55.4918 99.1023 53.2827L101.388 51.4119C101.983 53.0014 103.517 54.1329 105.314 54.1329C106.087 54.1329 106.811 53.924 107.432 53.5594L109.729 55.4399Z" fill="#28B446"/>
<path d="M109.816 44.5118L107.531 46.3822C106.888 45.9804 106.128 45.7483 105.314 45.7483C103.476 45.7483 101.914 46.9317 101.348 48.5782L99.0507 46.6973H99.0503C100.224 44.4343 102.589 42.8882 105.314 42.8882C107.025 42.8882 108.594 43.4977 109.816 44.5118Z" fill="#F14336"/>
<path d="M101.3 64.4572C101.056 62.846 100.208 61.6849 98.7353 61.08C97.5259 60.5834 96.3344 60.6902 95.2132 61.4034C95.008 61.5341 94.8246 61.6958 94.6246 61.8838C94.6246 61.5875 94.6216 61.3229 94.6261 61.0584C94.6276 60.9756 94.6044 60.9485 94.5227 60.9493C94.2044 60.9532 93.8869 60.9509 93.5686 60.9509C93.4211 60.9509 93.4211 60.9509 93.4211 61.1056V70.3663C93.8091 70.7098 94.2113 71.037 94.6269 71.3456C94.6217 70.3694 94.6239 69.3917 94.6254 68.4154C94.6254 68.3737 94.6134 68.3304 94.6404 68.2816C94.7811 68.4077 94.9129 68.5391 95.0642 68.6436C96.4385 69.5889 97.8629 69.6214 99.2843 68.8053C100.771 67.9521 101.565 66.2077 101.3 64.4572ZM97.776 68.1022C96.6235 68.3628 95.3638 67.8485 94.7235 66.8568C94.6568 66.7547 94.6232 66.6479 94.6239 66.5241C94.6254 65.5588 94.6246 64.5934 94.6239 63.628C94.6239 63.5004 94.6599 63.389 94.7317 63.2853C95.2785 62.5017 96.0228 62.0848 96.9492 62.0036C98.4238 61.8752 99.7598 62.921 100.072 64.4456C100.115 64.6553 100.138 64.8672 100.131 65.0389C100.132 66.5458 99.1622 67.7889 97.776 68.1022Z" fill="#5C5560"/>
<path d="M109.702 60.9351C109.372 60.9412 109.043 60.9412 108.713 60.9351C108.622 60.9336 108.606 60.9679 108.608 61.0504C108.613 61.2727 108.61 61.4957 108.609 61.7187C108.609 61.7554 108.623 61.7958 108.589 61.8378C108.454 61.7156 108.323 61.5927 108.177 61.4873C106.857 60.525 104.959 60.5372 103.633 61.5163C102.223 62.5572 101.589 64.3222 102.005 66.0374C102.45 67.8726 103.996 69.1617 105.786 69.2282C106.648 69.2602 107.436 69.0411 108.146 68.5378C108.302 68.4262 108.445 68.298 108.609 68.1467C108.609 68.44 108.613 68.7012 108.608 68.9616C108.606 69.0456 108.624 69.0777 108.714 69.0761C109.044 69.0708 109.373 69.0708 109.702 69.0761C109.794 69.0777 109.808 69.044 109.808 68.9616C109.806 66.3238 109.806 63.6867 109.808 61.0497C109.808 60.9664 109.791 60.9336 109.702 60.9351ZM108.609 64.9888C108.609 65.4425 108.609 65.8953 108.61 66.349C108.611 66.5063 108.57 66.6453 108.478 66.7744C107.94 67.5159 107.225 67.9398 106.324 68.0291C104.799 68.1796 103.407 67.0974 103.14 65.5571C102.854 63.9014 103.846 62.348 105.458 62.0219C106.617 61.7883 107.624 62.122 108.394 63.0773C108.548 63.2682 108.623 63.4798 108.614 63.7349C108.599 64.1518 108.609 64.5703 108.609 64.9888Z" fill="#5C5560"/>
<path d="M114.846 67.3495C115.031 66.9232 116.744 62.9777 117.421 61.4102C117.456 61.3294 117.496 61.3009 117.588 61.3023C117.959 61.3079 118.33 61.3066 118.701 61.3032C118.787 61.3024 118.816 61.3095 118.775 61.4023C117.539 64.1506 116.308 66.9009 115.07 69.6484C114.737 70.3888 114.205 70.942 113.389 71.207C112.98 71.3399 112.557 71.3488 112.132 71.3449C112.078 71.3444 112.058 71.3286 112.058 71.2749C112.06 70.9326 112.061 70.5904 112.058 70.2482C112.058 70.18 112.097 70.1828 112.146 70.1822C112.371 70.1786 112.597 70.1991 112.82 70.1485C113.286 70.0426 113.618 69.7725 113.832 69.3684C113.94 69.1659 114.025 68.9525 114.126 68.7463C114.152 68.693 114.128 68.6548 114.109 68.6119C113.531 67.3194 111.391 62.5414 110.899 61.4449C110.843 61.3188 110.843 61.3185 110.99 61.3184C111.361 61.3183 111.732 61.3216 112.103 61.3161C112.197 61.3148 112.243 61.3422 112.28 61.4267C113.115 63.3641 114.821 67.2965 114.846 67.3495Z" fill="#5C5560"/>
<defs>
<filter id="filter0_d" x="0" y="0" width="162" height="162" filterUnits="userSpaceOnUse" color-interpolation-filters="sRGB">
<feFlood flood-opacity="0" result="BackgroundImageFix"/>
<feColorMatrix in="SourceAlpha" type="matrix" values="0 0 0 0 0 0 0 0 0 0 0 0 0 0 0 0 0 0 127 0"/>
<feOffset dy="5"/>
<feGaussianBlur stdDeviation="5"/>
<feColorMatrix type="matrix" values="0 0 0 0 0 0 0 0 0 0 0 0 0 0 0 0 0 0 0.06 0"/>
<feBlend mode="normal" in2="BackgroundImageFix" result="effect1_dropShadow"/>
<feBlend mode="normal" in="SourceGraphic" in2="effect1_dropShadow" result="shape"/>
</filter>
</defs>
</svg>
