<svg xmlns="http://www.w3.org/2000/svg" xmlns:xlink="http://www.w3.org/1999/xlink" width="27" height="30"><defs><path id="a" d="M1078 1901.875c0-.507.19-.947.573-1.318a1.879 1.879 0 0 1 1.356-.557h23.142c.522 0 .974.186 1.356.557.382.371.573.81.573 1.318v26.25c0 .507-.191.946-.573 1.318a1.881 1.881 0 0 1-1.356.557h-23.142a1.88 1.88 0 0 1-1.356-.557c-.383-.372-.573-.811-.573-1.318zm1.929 26.25h23.142v-26.25h-23.142zm3.857-11.25h3.857v7.5h-3.857zm5.785-9.375h3.858v16.875h-3.858zm5.786 3.75h3.857v13.125h-3.857z"/></defs><use fill="#fff" xlink:href="#a" transform="translate(-1078 -1900)"/></svg>