<svg xmlns="http://www.w3.org/2000/svg" xmlns:xlink="http://www.w3.org/1999/xlink" width="28" height="28"><defs><path id="a" d="M1084.8 1972.365c.665-.611 1.464-.917 2.397-.917.932 0 1.72.306 2.363.917.643.613.966 1.344.966 2.197 0 .852-.323 1.573-.966 2.163-.644.59-1.431.885-2.363.885-.933 0-1.732-.295-2.397-.885-.666-.59-1-1.311-1-2.163 0-.853.334-1.584 1-2.197zm7.923-.032c.666-.59 1.465-.885 2.397-.885.932 0 1.72.295 2.364.885.643.59.965 1.31.965 2.163 0 .852-.322 1.584-.965 2.196-.644.612-1.432.918-2.364.918-.932 0-1.731-.306-2.397-.918-.666-.612-.999-1.344-.999-2.196 0-.852.333-1.573.999-2.163zm10.72 4.162c.089 0 .222-.065.4-.196.443-.306.776-.317.998-.033.222.285.2.623-.066 1.016-1.288 1.573-3.241 2.884-5.86 3.933 1.154 3.89.666 6.752-1.465 8.588-1.42 1.18-2.84 1.485-4.26.918-1.199-.438-1.776-1.353-1.732-2.751a353.5 353.5 0 0 1-.033-1.609 171.24 171.24 0 0 1-.034-3.507 11.13 11.13 0 0 1-.732-.197v5.31c.044 1.574-.666 2.535-2.13 2.885-1.599.393-3.042-.11-4.329-1.508-1.776-1.879-2.13-4.589-1.065-8.129-2.663-1.092-4.639-2.403-5.926-3.933-.266-.393-.288-.731-.067-1.016.222-.284.533-.273.933.033l.266.196v-10.816c0-.743.277-1.377.832-1.901.555-.525 1.187-.787 1.898-.787h19.975c.71 0 1.287.262 1.731.787.443.524.666 1.158.666 1.901zm-1.398.853v-10.423c0-.961-.145-1.628-.433-2-.29-.37-.832-.557-1.631-.557h-17.712c-.888 0-1.476.186-1.764.557-.29.372-.433 1.039-.433 2v10.488a10.341 10.341 0 0 0 3.396 1.278c1.242.241 2.264.34 3.063.295a20.022 20.022 0 0 1 2.264 0c.665-.042 1.153.088 1.464.394.044 0 .089.044.133.131.4.35.733.612 1 .787.043-.961.642-1.399 1.797-1.312.71-.042 1.465-.042 2.264 0 .799.045 1.82-.065 3.063-.328a12.7 12.7 0 0 0 3.529-1.31z"/></defs><use fill="#fff" xlink:href="#a" transform="translate(-1077 -1963)"/></svg>