<svg xmlns="http://www.w3.org/2000/svg" xmlns:xlink="http://www.w3.org/1999/xlink" width="32" height="33"><defs><path id="a" d="M1102.931 1878.571l.069-2.57c-1.564 2.319-5.358 5.861-13.965 5.999-7.577.121-16.035-8-16.035-8s9.06 5.896 16.035 5.714c7.623-.198 11.932-2.962 13.812-4.571h-3.123V1874H1105l-1 4.571zm-8.28-8.936c-1.295 1.225-2.542 2.09-3.74 2.594a9.85 9.85 0 0 1-3.859.756c-2.267 0-4.01-.616-5.228-1.848-1.218-1.232-1.827-2.806-1.827-4.723 0-1.124.23-2.15.69-3.08.46-.93 1.062-1.675 1.808-2.237a8.119 8.119 0 0 1 2.517-1.275c.686-.202 1.723-.397 3.11-.584 2.824-.375 4.903-.822 6.238-1.34.013-.533.02-.872.02-1.016 0-1.585-.33-2.702-.992-3.35-.894-.88-2.222-1.32-3.984-1.32-1.646 0-2.86.322-3.644.963-.784.641-1.364 1.776-1.74 3.404l-3.42-.518c.31-1.629.822-2.944 1.535-3.945.713-1.002 1.743-1.773 3.09-2.313 1.348-.54 2.909-.81 4.684-.81 1.762 0 3.194.23 4.296.69 1.1.462 1.91 1.042 2.43 1.74.517.7.88 1.583 1.087 2.649.117.662.175 1.859.175 3.588v5.187c0 3.618.954 6.195 1.103 7.153.149.958.56 1.121 1 2l-4.649.466c-.363-.806-.596-1.75-.7-2.831zm-.291-8.69c-1.27.577-3.175 1.067-5.714 1.47-1.438.231-2.456.49-3.051.779a3.142 3.142 0 0 0-1.38 1.264 3.597 3.597 0 0 0-.486 1.848c0 1.038.353 1.902 1.06 2.594.705.692 1.739 1.037 3.1 1.037 1.346 0 2.545-.327 3.595-.983a5.835 5.835 0 0 0 2.312-2.691c.376-.879.564-2.176.564-3.89z"/></defs><use fill="#fff" xlink:href="#a" transform="translate(-1073 -1849)"/></svg>